<svg width="1909" height="851" viewBox="0 0 1909 851" fill="none" xmlns="http://www.w3.org/2000/svg">
<path opacity="0.5" d="M1405.38 167.541C1410.06 164.066 1414.76 160.619 1419.42 157.109C1408.61 163.905 1397.48 170.216 1386.48 176.717C1392.82 173.711 1399.1 170.634 1405.38 167.541ZM1460.09 129.366C1465.68 124.024 1471.25 118.634 1476.78 113.166C1466.46 121.743 1456.22 130.453 1445.74 138.746C1450.52 135.614 1455.33 132.525 1460.09 129.366ZM1434.29 152.933C1441.32 146.539 1448.41 140.267 1455.35 133.703C1447.91 138.6 1440.45 143.454 1432.98 148.312C1425.65 153.941 1418.17 159.307 1410.77 164.815C1418.64 160.887 1426.47 156.912 1434.29 152.933ZM91.9966 512.403C78.473 510.429 64.9454 508.554 51.4178 506.423C37.2989 505.914 23.1878 505.209 9.08062 504.539C36.7074 507.49 64.35 510.149 91.9966 512.403ZM1507.71 85.6672C1511.58 80.8608 1515.43 76.015 1519.26 71.1298C1509.95 81.239 1500.26 90.6508 1490.73 100.338C1496.44 95.536 1502.09 90.6311 1507.71 85.6672ZM1486.06 112.047C1492.01 105.058 1497.86 97.9038 1503.7 90.7178C1497.26 96.3633 1490.66 101.749 1484.07 107.15C1477.84 113.402 1471.7 119.789 1465.4 125.903C1472.32 121.341 1479.24 116.771 1486.06 112.047ZM1461.86 138.963C1468.87 131.206 1475.97 123.642 1482.85 115.628C1475.55 120.659 1468.08 125.418 1460.65 130.24C1453.11 137.458 1445.33 144.234 1437.68 151.223C1445.75 147.157 1453.89 143.17 1461.86 138.963ZM106.983 506.848C90.9636 503.48 74.9324 500.001 58.909 496.345C39.9957 496.664 21.0981 496.79 2.20841 496.865C18.6378 499.812 35.0712 502.747 51.5125 505.379C70 506.044 88.4915 506.474 106.983 506.848ZM158.83 517.158C143.339 514.203 127.844 511.237 112.337 508.022C95.2533 507.699 78.1615 507.364 61.0776 506.797C76.7657 509.22 92.4539 511.528 108.138 513.735C125.041 515.023 141.935 516.146 158.83 517.158ZM205.485 525.739C192.572 523.525 179.636 521.11 166.704 518.651C152.502 517.84 138.296 517.095 124.087 516.083C151.244 519.762 178.386 522.918 205.485 525.739ZM1554.68 29.1449C1559.05 21.9747 1563.34 14.6115 1567.63 7.27194C1559.34 19.284 1551.13 31.4299 1542.61 42.9928C1546.63 38.3755 1550.69 33.8292 1554.68 29.1449ZM1533.02 62.5493C1538.96 53.4526 1544.99 44.5175 1550.79 35.1371C1544.64 42.2955 1538.42 49.3475 1532.23 56.431C1525.74 64.9643 1519.05 73.076 1512.43 81.3572C1519.33 75.1483 1526.18 68.8645 1533.02 62.5493ZM1513.11 92.6601C1519.12 83.9692 1524.93 74.8883 1530.82 65.9453C1523.37 72.7924 1515.94 79.6631 1508.43 86.4039C1502.27 94.0508 1496.18 101.839 1489.92 109.289C1497.7 103.813 1505.39 98.2229 1513.11 92.6601ZM1490.29 123.374C1497.23 114.06 1504.34 105.074 1511.09 95.3745C1502.96 101.209 1494.88 107.111 1486.7 112.859C1479.48 121.36 1471.95 129.279 1464.57 137.474C1473.2 132.856 1481.71 128.066 1490.29 123.374ZM117.798 493.816C102.062 489.384 86.3151 484.684 70.5756 479.901C50.0536 481.169 29.5553 482.237 9.06879 483.277C25.723 487.418 42.3811 491.479 59.0431 495.301C78.6188 494.966 98.2104 494.418 117.798 493.816ZM169.215 507.561C153.168 503.385 137.113 499.26 121.047 494.777C101.909 495.38 82.7587 495.959 63.6285 496.306C79.912 500.009 96.1995 503.594 112.475 506.982C131.396 507.337 150.306 507.514 169.215 507.561ZM220.171 520.247C204.523 516.512 188.858 512.659 173.182 508.609C154.738 508.585 136.285 508.471 117.826 508.148C134.192 511.505 150.554 514.57 166.905 517.623C184.671 518.639 202.433 519.561 220.171 520.247ZM269.258 531.629C254.651 528.481 239.995 524.955 225.348 521.452C208.501 520.83 191.642 520.034 174.771 519.116C190.305 521.972 205.824 524.655 221.33 527.2C237.314 528.768 253.31 530.376 269.258 531.629ZM314.17 540.591C301.975 538.224 289.773 535.812 277.554 533.287C264.015 532.267 250.436 530.935 236.869 529.69C262.69 533.756 288.468 537.416 314.17 540.591ZM1556.62 40.7787C1562.39 29.9328 1568.31 19.3824 1573.9 8.14654C1567.87 15.5531 1561.67 22.6405 1555.48 29.7556C1549.14 40.1247 1542.48 49.836 1535.97 59.8467C1542.88 53.5314 1549.85 47.3264 1556.62 40.7787ZM1538.61 74.384C1544.2 64.4797 1549.54 54.0435 1554.99 43.8517C1548.05 50.5412 1540.86 56.8092 1533.77 63.2426C1527.78 72.3984 1521.93 81.8142 1515.82 90.7218C1523.43 85.2969 1531.13 80.002 1538.61 74.384ZM1517.74 108.332C1524.24 97.7856 1530.95 87.6803 1537.22 76.6532C1529.53 82.417 1521.62 87.8655 1513.81 93.4322C1506.89 103.435 1499.56 112.618 1492.44 122.196C1500.89 117.598 1509.39 113.064 1517.74 108.332ZM181.367 491.357C165.998 486.224 150.605 480.933 135.213 475.461C114.675 476.978 94.1414 478.419 73.6273 479.704C89.485 484.518 105.351 489.285 121.201 493.729C141.257 493.091 161.314 492.283 181.367 491.357ZM230.805 507.183C215.231 502.321 199.653 497.456 184.056 492.279C164.279 493.205 144.498 494.036 124.717 494.674C140.942 499.178 157.162 503.381 173.371 507.565M280.085 522.071C264.728 517.643 249.34 512.955 233.947 508.16C215.089 508.479 196.219 508.617 177.337 508.617C193.436 512.742 209.518 516.626 225.593 520.42C243.765 521.094 261.949 521.764 280.085 522.071ZM328.155 535.391C313.441 531.502 298.679 527.37 283.914 523.131C266.223 522.851 248.488 522.248 230.758 521.626C246.469 525.317 262.173 528.926 277.842 532.251C294.638 533.512 311.406 534.489 328.155 535.391ZM376.383 547.352C361.941 543.897 347.506 540.501 333.017 536.738C317.202 535.919 301.352 534.918 285.487 533.776C300.083 536.817 314.679 539.784 329.228 542.51C344.983 544.35 360.691 545.87 376.383 547.352ZM419.761 557.382C407.747 554.794 395.691 551.969 383.622 549.093C370.851 547.935 358.096 546.906 345.286 545.508C370.201 549.972 395.032 553.903 419.761 557.382ZM1564.7 53.9254C1569.94 42.5122 1574.84 30.3662 1579.92 18.6142C1572.41 26.2059 1565.01 33.9631 1557.42 41.413C1551.89 51.8019 1546.53 62.5808 1540.85 72.686C1548.89 66.5598 1556.74 60.1579 1564.7 53.9254ZM1545.34 92.2228C1551.49 80.1714 1557.9 68.6597 1563.76 55.974C1555.61 62.3444 1547.58 68.8842 1539.35 75.1247C1532.99 86.3606 1526.15 96.6194 1519.55 107.343C1528.21 102.395 1536.75 97.2734 1545.34 92.2228ZM244.695 487.942C229.764 482.154 214.825 476.355 199.866 470.253C179.226 472.033 158.582 473.735 137.945 475.272C153.389 480.756 168.829 486.098 184.249 491.227C204.408 490.282 224.556 489.194 244.695 487.942ZM292.032 505.713C277.03 500.218 262.012 494.655 246.974 488.844C226.969 490.101 206.959 491.2 186.934 492.149C202.697 497.357 218.44 502.231 234.176 507.112C253.476 506.785 272.771 506.395 292.032 505.713ZM338.367 522.347C323.826 517.391 309.218 511.989 294.622 506.639C275.543 507.329 256.433 507.746 237.314 508.089C252.959 512.927 268.592 517.611 284.198 522.091C302.279 522.374 320.341 522.437 338.367 522.347ZM386.125 537.715C371.316 533.047 356.5 528.406 341.635 523.403C323.795 523.513 305.914 523.41 288.022 523.154C303.142 527.484 318.267 531.782 333.336 535.718C350.972 536.628 368.561 537.215 386.125 537.715ZM433.501 551.989C418.937 547.781 404.349 543.448 389.717 538.87C372.57 538.409 355.411 537.92 338.197 537.061C353.495 540.985 368.734 544.484 383.973 548.061C400.52 549.562 417.037 550.905 433.501 551.989ZM479.186 564.852C465.599 561.306 451.914 557.284 438.245 553.324C422.6 552.331 406.919 551.165 391.2 549.798C405.717 553.151 420.187 556.263 434.633 559.249C449.505 561.223 464.397 563.264 479.186 564.852ZM521.287 574.937C509.813 572.242 498.34 569.587 486.827 566.719C474.285 565.427 461.645 563.713 449.044 562.141C473.236 566.94 497.327 571.222 521.287 574.937ZM1572.47 76.0859C1578.01 62.825 1583.79 50.0842 1589.01 36.1142C1581.28 42.4137 1573.37 48.4689 1565.52 54.5912C1559.62 67.4029 1553.19 79.0722 1546.99 91.2418C1555.52 86.2345 1564.04 81.2193 1572.47 76.0859ZM307.815 483.553C293.424 477.175 279.037 470.918 264.614 464.249C243.848 466.305 223.077 468.247 202.299 470.048C217.285 476.158 232.256 482.001 247.211 487.78C267.429 486.512 287.632 485.145 307.815 483.553ZM352.73 503.011C338.446 497.015 324.126 490.782 309.79 484.435C289.71 486.027 269.605 487.41 249.49 488.682C264.642 494.513 279.77 500.076 294.89 505.583C314.194 504.882 333.49 504.082 352.73 503.011ZM397.544 521.271C383.409 515.697 369.227 509.886 355.033 503.945C335.883 505.024 316.682 505.8 297.477 506.513C312.337 511.93 327.205 517.343 342.01 522.362M443.461 538.617C428.979 533.279 414.497 527.953 399.949 522.252C381.757 522.788 363.545 523.28 345.279 523.418C360.241 528.441 375.165 533.173 390.068 537.837C407.905 538.31 425.707 538.578 443.461 538.617ZM489.252 555.046C474.987 550.188 460.643 544.941 446.296 539.658C428.794 539.646 411.249 539.433 393.656 538.992C408.69 543.656 423.668 548.01 438.631 552.284C455.53 553.352 472.448 554.435 489.252 555.046ZM534.44 569.678C520.585 565.36 506.687 560.88 492.749 556.18C476.355 555.617 459.855 554.62 443.362 553.62C458.021 557.8 472.677 561.932 487.245 565.667C503.04 567.29 518.752 568.504 534.44 569.678ZM579.261 582.856C565.859 579.078 552.45 575.284 538.962 571.139C524.129 570.072 509.25 568.831 494.322 567.357C508.118 570.808 521.886 574.106 535.607 577.21C550.215 579.346 564.752 581.146 579.261 582.856ZM619.654 594.052C608.532 591.243 597.283 587.942 586.062 584.743C573.859 583.36 561.704 582.198 549.426 580.512C572.992 585.677 596.4 590.144 619.654 594.052ZM1599.41 59.4054C1604.35 44.7578 1609.47 30.5356 1614.06 15.1197C1606.22 21.7699 1598.42 28.4594 1590.48 34.9559C1585.26 48.989 1579.51 61.8716 1573.96 75.2074C1582.49 70.0031 1590.97 64.7279 1599.41 59.4054ZM370.761 478.152C357.063 471.285 343.378 464.497 329.646 457.39C308.678 459.749 287.699 461.952 266.708 464.04C281.185 470.721 295.624 476.974 310.07 483.36C330.32 481.752 350.566 480.098 370.761 478.152ZM412.818 498.933C399.424 492.571 385.96 485.763 372.507 479.018C352.387 480.965 332.22 482.631 312.049 484.246C326.515 490.629 340.961 496.857 355.38 502.893C374.569 501.805 393.699 500.399 412.818 498.933ZM456.472 518.856C442.597 512.612 428.731 506.419 414.801 499.839C395.789 501.305 376.765 502.739 357.682 503.83C371.908 509.775 386.129 515.641 400.3 521.204C419.067 520.649 437.791 519.849 456.472 518.856ZM500.406 538.078C486.476 532.176 472.507 526.074 458.506 519.786C439.948 520.787 421.35 521.614 402.697 522.185C417.399 527.921 432.035 533.24 446.674 538.606C464.625 538.614 482.561 538.543 500.406 538.078ZM543.942 556.07C530.264 550.665 516.496 544.866 502.732 539.039C485.053 539.516 467.287 539.63 449.501 539.646C464.089 544.98 478.662 550.216 493.167 555.117C510.152 555.7 527.075 555.976 543.942 556.07ZM588.361 572.715C574.474 567.637 560.604 562.653 546.627 557.181C530.036 557.114 513.37 556.791 496.664 556.251C510.949 561.054 525.21 565.726 539.404 570.099C555.798 571.277 572.093 572.049 588.361 572.715ZM632.393 588.297C618.893 583.79 605.303 578.9 591.692 573.937C575.811 573.318 559.918 572.664 543.914 571.561C558.183 575.883 572.353 579.763 586.523 583.679C601.865 585.409 617.186 587.063 632.393 588.297ZM675.858 602.066C662.914 598.169 649.899 594.017 636.849 589.707C622.402 588.58 607.873 587.134 593.309 585.558C606.805 589.254 620.269 592.804 633.651 596.046C647.778 598.276 661.857 600.309 675.858 602.066ZM714.734 613.018C703.982 610.11 693.258 607.317 682.435 604.15C670.796 602.743 659.031 600.88 647.305 599.15C669.94 604.366 692.433 609.031 714.734 613.018ZM433.229 471.533C420.364 464.367 407.487 457.114 394.583 449.68C373.595 452.335 352.585 454.797 331.558 457.173C345.338 464.296 359.074 471.068 372.819 477.935C392.986 475.981 413.125 473.834 433.229 471.533ZM473.445 493.583C460.616 486.76 447.723 479.59 434.83 472.411C414.777 474.716 394.681 476.84 374.561 478.802C388.117 485.578 401.68 492.374 415.176 498.772C434.649 497.263 454.063 495.494 473.445 493.583ZM515.148 515.054C501.806 508.274 488.475 501.573 475.07 494.47C455.806 496.38 436.51 498.161 417.159 499.67C431.104 506.245 444.999 512.494 458.885 518.722C477.684 517.706 496.455 516.532 515.148 515.054ZM556.677 535.887C543.484 529.548 530.185 522.701 516.91 515.949C498.304 517.434 479.632 518.628 460.915 519.656C475.03 525.967 489.098 532.046 503.138 537.975C521.034 537.483 538.907 536.868 556.677 535.887ZM598.979 555.349C585.605 549.302 572.227 543.27 558.77 536.849C541.079 537.841 523.278 538.428 505.465 538.933C519.355 544.799 533.257 550.704 547.053 556.125M641.635 574.035C628.202 568.366 614.718 562.468 601.182 556.366C584.087 556.85 566.967 557.28 549.734 557.24C563.939 562.768 578.031 567.751 592.146 572.873C608.709 573.511 625.218 573.944 641.635 574.035ZM684.564 591.673C671.21 586.472 657.733 580.799 644.261 575.114C628.076 575.055 611.808 574.689 595.477 574.094C609.474 579.149 623.431 584.03 637.318 588.616C653.12 589.841 668.915 591.007 684.564 591.673ZM727.248 607.286C714.115 602.617 701.017 598.079 687.777 592.993C672.55 592.382 657.146 591.172 641.765 590.03C655.529 594.561 669.29 599.056 682.924 603.078C697.803 604.863 712.518 606.045 727.248 607.286ZM768.836 621.583C756.487 617.631 744.028 613.254 731.549 608.826C717.486 607.691 703.461 606.718 689.256 605.079C702.444 608.846 715.479 612.037 728.561 615.409C742.041 617.663 755.498 619.822 768.836 621.583ZM807.633 633.193C796.932 630.144 786.172 626.901 775.381 623.541C764.239 622.134 753.077 620.653 741.836 618.9C763.975 624.388 785.904 629.123 807.633 633.193ZM495.458 463.744C483.472 456.397 471.439 448.742 459.401 441.083C438.426 444.046 417.399 446.772 396.365 449.443C409.332 456.897 422.265 464.126 435.197 471.32C455.332 469.004 475.405 466.423 495.458 463.744ZM534.045 486.921C521.693 479.629 509.309 472.207 496.901 464.611C476.903 467.286 456.882 469.882 436.802 472.199C449.698 479.377 462.599 486.579 475.433 493.39C495.024 491.444 514.56 489.297 534.045 486.921ZM573.587 509.815C560.923 502.644 548.224 495.297 535.492 487.788C516.067 490.164 496.581 492.326 477.049 494.277C490.514 501.396 503.903 508.073 517.308 514.861C536.115 513.36 554.91 511.804 573.587 509.815ZM613.015 531.735C600.441 524.951 587.793 517.836 575.137 510.677C556.531 512.667 537.807 514.247 519.071 515.76C532.492 522.559 545.921 529.399 559.259 535.785C577.266 534.764 595.15 533.275 613.015 531.735ZM653.668 552.93C640.697 546.292 627.733 539.677 614.675 532.661C596.952 534.205 579.214 535.722 561.353 536.75C574.829 543.168 588.238 549.258 601.628 555.29C619.055 554.79 636.399 553.994 653.668 552.93ZM694.484 573.606C681.595 567.408 668.54 560.55 655.537 553.88C638.378 554.955 621.149 555.786 603.832 556.307C617.521 562.448 631.143 568.311 644.726 574.019C661.365 574.074 678.015 574.137 694.484 573.606ZM736.024 592.536C722.927 586.658 709.845 580.882 696.64 574.59C680.321 575.142 663.833 575.122 647.352 575.099C661.018 580.851 674.711 586.673 688.254 591.909C704.297 592.544 720.159 592.512 736.024 592.536ZM777.305 610.457C764.46 605.135 751.531 599.493 738.56 593.69C722.852 593.698 707.144 593.718 691.262 593.127C704.952 598.343 718.479 602.94 732.046 607.711C747.218 608.929 762.307 609.843 777.305 610.457ZM819.725 627.378C806.734 622.493 793.62 617.147 780.483 611.722C765.851 611.162 751.149 610.382 736.344 609.248C749.584 613.869 762.764 618.262 775.87 622.382C790.537 624.226 805.239 626.157 819.725 627.378ZM859.996 641.502C847.896 637.408 835.831 633.441 823.609 628.93C809.998 627.831 796.159 625.991 782.387 624.336C795.371 628.398 808.358 632.46 821.176 635.955C834.246 638.232 847.092 639.756 859.996 641.502ZM895.832 653.474C886.121 650.543 876.236 647.045 866.387 643.657C855.265 642.227 844.146 640.816 832.902 638.984C854.086 644.5 875.089 649.401 895.832 653.474ZM557.56 454.817C546.402 447.336 535.142 439.291 523.92 431.447C503.016 434.721 482.072 437.861 461.093 440.831C473.181 448.506 485.262 456.133 497.299 463.508C517.439 460.809 537.519 457.89 557.56 454.817ZM594.433 478.908C582.585 471.194 570.764 463.622 558.869 455.672C538.871 458.745 518.834 461.672 498.738 464.375C511.146 471.966 523.534 479.412 535.883 486.689C555.455 484.29 574.987 481.756 594.433 478.908ZM631.321 502.786C619.52 495.407 607.613 487.504 595.738 479.763C576.335 482.611 556.854 485.16 537.33 487.563C550.112 495.084 562.847 502.396 575.563 509.578C594.224 507.573 612.806 505.284 631.321 502.786ZM669.392 525.884C657.201 518.569 645.018 511.296 632.756 503.653C614.28 506.159 595.73 508.424 577.116 510.433C589.808 517.603 602.507 524.789 615.116 531.569C633.296 529.986 651.374 528.032 669.392 525.884ZM708.047 548.734C695.71 541.679 683.286 534.233 670.855 526.771C652.9 528.926 634.893 530.896 616.776 532.495C629.913 539.531 642.948 546.119 655.999 552.773C673.418 551.673 690.805 550.432 708.047 548.734ZM747.427 570.643C734.889 563.851 722.304 556.846 709.663 549.633C692.5 551.339 675.204 552.607 657.863 553.722C670.977 560.419 684.122 567.235 697.121 573.46C713.996 572.881 730.745 571.86 747.427 570.643ZM787.016 591.432C774.466 585.027 761.877 578.479 749.213 571.632C732.657 572.861 716.019 573.838 699.274 574.437C712.605 580.772 725.828 586.673 739.045 592.567M827.287 611.623C814.663 605.623 801.864 599.001 789.098 592.477C773.339 593.166 757.524 593.678 741.572 593.721C754.772 599.584 767.906 605.194 780.976 610.563C796.483 611.151 811.989 611.718 827.287 611.623ZM868.059 629.907C855.241 624.289 842.467 618.841 829.515 612.742C814.525 612.86 799.341 612.364 784.15 611.836C797.456 617.308 810.779 622.824 823.924 627.713C838.776 628.903 853.416 629.391 868.059 629.907ZM907.727 646.793C895.639 641.97 883.412 636.644 871.166 631.282C856.676 630.817 842.147 630.25 827.449 629.119C840.712 633.961 853.779 638.125 866.896 642.467C880.601 644.22 894.211 645.662 907.727 646.793ZM949.197 662.378C936.856 657.997 924.417 653.293 911.914 648.365C899.104 647.352 886.251 646.19 873.267 644.614C885.368 648.569 897.401 652.3 909.344 655.728C922.69 658.147 936.052 660.597 949.197 662.378ZM983.731 673.85C974.277 670.86 964.857 667.972 955.308 664.675C944.43 663.28 933.288 661.054 922.268 659.21C942.987 664.836 963.493 669.773 983.731 673.85ZM619.954 444.617C609.439 436.939 598.825 428.776 588.25 420.794C567.393 424.395 546.508 427.909 525.561 431.199C536.817 439.047 548.101 447.052 559.291 454.549C579.568 451.433 599.791 448.131 619.954 444.617ZM654.595 469.488C643.441 461.558 632.295 453.647 621.093 445.476C600.989 448.986 580.826 452.292 560.604 455.412C572.491 463.354 584.312 470.954 596.152 478.644C615.684 475.768 635.205 472.829 654.595 469.488ZM689.236 493.965C678.145 486.346 666.948 478.274 655.782 470.327C636.431 473.672 616.95 476.619 597.453 479.495C609.399 487.268 621.369 495.143 633.237 502.554C652.001 500.001 670.638 497.042 689.236 493.965ZM725.478 518.273C713.823 510.547 702.18 502.861 690.45 494.824C671.927 497.901 653.361 500.872 634.672 503.424C646.934 511.056 659.125 518.368 671.308 525.664C689.449 523.477 707.518 521.043 725.478 518.273ZM762.323 542.53C750.557 535.06 738.646 527.011 726.779 519.136C708.871 521.909 690.856 524.36 672.767 526.55C685.262 534.028 697.736 541.426 710.136 548.498C727.607 546.753 745.053 544.909 762.323 542.53ZM799.834 565.525C787.812 558.233 775.826 551.106 763.71 543.444C746.52 545.827 729.14 547.643 711.749 549.396C724.449 556.63 737.109 563.717 749.698 570.517C766.537 569.256 783.211 567.456 799.834 565.525ZM837.605 588.285C825.635 581.41 813.476 573.814 801.379 566.459C784.832 568.401 768.241 570.233 751.48 571.506C764.255 578.38 776.93 584.881 789.587 591.318C805.693 590.605 821.728 589.691 837.605 588.285ZM877.206 609.992C864.629 603.204 852.075 596.503 839.372 589.254C823.593 590.672 807.664 591.629 791.668 592.362C804.443 598.875 817.269 605.568 829.897 611.541C845.787 611.403 861.557 610.879 877.206 609.992ZM915.68 630.238C903.615 624.163 891.436 617.682 879.229 611.099C863.683 612.009 847.983 612.486 832.196 612.655C845.459 618.86 858.537 624.392 871.659 630.088C886.468 630.549 901.103 630.49 915.68 630.238ZM956.03 649.81C943.496 644.011 930.839 637.802 918.132 631.428C903.765 631.712 889.358 631.873 874.766 631.459C887.386 636.924 899.956 642.211 912.411 647.12C927.027 648.262 941.658 649.432 956.03 649.81ZM995.272 666.936C983.128 661.834 970.992 656.736 958.691 651.099C944.813 650.776 930.698 649.728 916.59 648.688C929.637 653.805 942.672 658.864 955.525 663.331C968.938 665.049 982.083 665.916 995.272 666.936ZM1032.62 682.379C1021.69 678.266 1010.52 673.37 999.4 668.654C986.436 667.712 973.453 666.735 960.272 665.12C972.656 669.3 984.824 672.782 997.046 676.442C1008.98 678.653 1020.88 680.76 1032.62 682.379ZM1069.99 695.049C1059.67 691.657 1049.35 688.238 1038.93 684.515C1029.27 683.262 1019.59 681.974 1009.8 680.319C1030.15 686.134 1050.21 691.011 1069.99 695.049ZM682.218 433.145C672.329 425.285 662.394 417.209 652.462 409.141C631.632 413.088 610.763 416.91 589.823 420.53C600.39 428.496 611 436.687 621.503 444.341C641.805 440.792 662.055 437.104 682.218 433.145ZM714.178 458.319C703.911 450.385 693.597 442.202 683.274 433.996C663.139 437.959 642.917 441.651 622.647 445.2C633.876 453.367 645.042 461.247 656.219 469.181C675.622 465.82 694.933 462.161 714.178 458.319ZM747.159 483.403C736.565 475.437 725.951 467.392 715.294 459.166C696.077 463.011 676.785 466.66 657.406 470.02C668.584 477.966 679.801 486.09 690.904 493.697C709.75 490.565 728.494 487.099 747.159 483.403ZM781.263 508.81C770.322 500.856 759.291 492.535 748.267 484.246C729.637 487.942 710.933 491.42 692.118 494.56C703.887 502.605 715.558 510.252 727.252 517.989C745.337 515.177 763.379 512.234 781.263 508.81ZM816.315 533.716C805.058 525.825 793.782 517.875 782.438 509.649C764.598 513.077 746.595 516.031 728.553 518.848C740.448 526.732 752.399 534.851 764.191 542.317C781.705 539.878 799.026 536.825 816.315 533.716ZM851.874 558.288C840.499 550.641 829.034 542.64 817.553 534.595C800.303 537.711 783.026 540.765 765.556 543.211C777.743 550.893 789.78 557.993 801.872 565.297C818.656 563.323 835.326 560.975 851.874 558.288ZM889.18 582.75C877.258 575.107 865.276 567.259 853.234 559.179C836.742 561.873 820.139 564.245 803.414 566.234C815.589 573.606 827.812 581.15 839.865 588.044C856.389 586.547 872.917 585.027 889.18 582.75ZM925.907 605.678C914.197 598.555 902.436 591.251 890.6 583.679C874.446 585.96 858.037 587.501 841.627 589.014C854.413 596.29 867.077 603.114 879.73 609.909C895.284 608.984 910.609 607.368 925.907 605.678ZM963.722 628.205C951.791 621.382 939.707 614.042 927.622 606.699C912.419 608.401 897.204 610.067 881.748 611.013C894.105 617.635 906.406 624.065 918.621 630.175C933.769 629.864 948.842 629.32 963.722 628.205ZM1002.74 649.472C990.387 642.904 978.058 636.404 965.547 629.297C950.869 630.427 936.008 631.022 921.069 631.369C933.785 637.723 946.484 644.035 959.022 649.791C973.74 650.122 988.297 649.968 1002.74 649.472ZM1039.98 669.004C1028.51 663.379 1016.8 656.969 1005.14 650.748C990.801 651.28 976.299 651.37 961.68 651.083C974.541 656.917 987.201 662.098 999.889 667.358C1013.39 668.319 1026.73 668.792 1039.98 669.004ZM1081.2 687.84C1068.56 682.265 1055.88 676.604 1043.03 670.399C1030.12 670.245 1017.16 669.942 1004.01 669.071C1015.87 673.988 1027.72 678.85 1039.4 683.144C1053.41 684.944 1067.48 686.914 1081.2 687.84ZM1117.3 702.941C1106.48 698.682 1095.59 694.195 1084.6 689.396C1071.82 688.592 1058.71 686.843 1045.68 685.275C1058.27 689.802 1070.81 694.163 1083.19 698.008C1094.72 700.143 1105.97 701.428 1117.3 702.941ZM1154.08 716.765C1144.03 713.337 1133.79 709.299 1123.55 705.289C1113.14 703.996 1102.78 702.889 1092.18 701.061C1113.18 707.396 1133.8 712.601 1154.08 716.765ZM744.265 420.349C735.023 412.379 725.801 404.5 716.539 396.439C695.749 400.745 674.896 404.886 653.98 408.857C663.9 416.906 673.832 425.014 683.704 432.842C703.954 428.851 724.173 424.769 744.265 420.349ZM773.465 445.531C764.128 437.711 754.658 429.327 745.247 421.196C725.178 425.616 704.983 429.698 684.757 433.693C695.122 441.907 705.468 450.07 715.771 458.02C735.106 454.147 754.311 449.908 773.465 445.531ZM804.778 471.056C794.673 462.791 784.642 454.845 774.49 446.37C755.364 450.743 736.19 454.994 716.886 458.871C727.532 467.077 738.146 475.157 748.728 483.096C767.507 479.361 786.204 475.374 804.778 471.056ZM836.848 497.192C826.57 489.037 816.157 480.37 805.795 471.884C787.249 476.205 768.588 480.196 749.836 483.935C760.891 492.228 771.943 500.505 782.916 508.463C800.985 504.985 819.004 501.321 836.848 497.192ZM869.932 522.752C859.259 514.55 848.641 506.549 837.893 498.047C820.092 502.176 802.117 505.82 784.087 509.302C795.45 517.532 806.761 525.55 818.038 533.429C835.472 530.269 852.742 526.617 869.932 522.752ZM903.946 548.715C893.064 540.654 882.04 532.062 871.052 523.607C853.901 527.476 836.675 531.144 819.279 534.311C830.808 542.364 842.305 550.31 853.731 557.977C870.579 555.211 887.359 552.237 903.946 548.715ZM939.269 574.07C927.898 565.982 916.571 558.068 905.093 549.593C888.577 553.115 871.868 556.102 855.088 558.867C867.113 566.924 879.103 574.823 891.01 582.43C907.258 580.126 923.293 577.175 939.269 574.07ZM974.403 598.898C963.245 591.322 951.882 583.049 940.586 575C924.649 578.12 908.638 581.04 892.425 583.36C904.396 590.991 916.271 598.276 928.111 605.454C943.689 603.693 959.113 601.483 974.403 598.898ZM1012.2 623.466C1000.09 615.681 988.049 608.156 975.787 599.879C960.599 602.464 945.294 604.701 929.83 606.474C941.903 613.798 954.007 621.208 965.926 627.992C981.453 626.787 996.987 625.581 1012.2 623.466ZM1048.01 646.202C1036.72 639.374 1025.22 631.849 1013.78 624.482C998.643 626.614 983.195 627.855 967.752 629.084C980.502 636.289 993.044 642.806 1005.63 649.452C1019.94 648.9 1033.99 647.588 1048.01 646.202ZM1086.55 668.394C1074.43 661.582 1062.29 654.731 1049.99 647.344C1036.1 648.751 1022.2 650.141 1008.03 650.724C1019.91 657.008 1031.81 663.343 1043.5 669.024C1057.98 669.182 1072.4 669.17 1086.55 668.394ZM1124.22 688.746C1112.48 682.679 1100.63 676.308 1088.7 669.623C1074.83 670.423 1060.73 670.517 1046.55 670.419C1059.42 676.608 1072.18 682.407 1084.84 687.927C1098.15 688.754 1111.2 688.77 1124.22 688.746ZM1161.59 707.404C1150.28 702.125 1138.77 696.2 1127.26 690.259C1114.35 690.341 1101.38 690.219 1088.2 689.467C1100.25 694.648 1112.13 699.289 1123.99 703.843C1136.65 705.399 1149.21 706.667 1161.59 707.404ZM1200.6 724.167C1188.77 719.31 1176.99 714.602 1164.94 709.082C1153.48 708.46 1141.92 707.518 1130.22 706.191C1140.94 710.347 1151.7 714.606 1162.19 718.057C1175.15 720.547 1187.95 722.58 1200.6 724.167ZM1231.1 736.554C1223.14 733.666 1214.97 730.16 1206.83 726.744C1196.33 725.534 1185.55 723.51 1174.83 721.67C1193.87 727.477 1212.69 732.606 1231.1 736.554ZM805.914 406.02C797.421 398.18 788.983 390.597 780.467 382.642C759.72 387.327 738.895 391.798 718.006 396.132C727.252 404.173 736.47 412.084 745.696 420.018C765.851 415.574 785.932 410.91 805.914 406.02ZM833.067 430.962C824.366 423.099 815.593 414.956 806.84 406.871C786.874 411.76 766.809 416.417 746.67 420.861C756.113 429 765.611 437.353 774.983 445.192C794.452 440.733 813.803 435.958 833.067 430.962ZM862.074 456.826C852.734 448.577 843.382 440.292 833.982 431.805C814.753 436.797 795.442 441.576 776.012 446.036C786.149 454.486 796.175 462.46 806.264 470.702C824.965 466.333 843.606 461.798 862.074 456.826ZM892.165 483.005C882.478 474.653 872.771 466.246 863.016 457.646C844.568 462.621 825.958 467.164 807.282 471.529C817.651 480.015 828.084 488.73 838.37 496.877C856.456 492.669 874.336 487.898 892.165 483.005ZM923.147 509.519C913.204 501.195 903.161 492.492 893.131 483.844C875.326 488.737 857.477 493.52 839.419 497.728C850.199 506.233 860.832 514.184 871.537 522.398C888.873 518.474 906.079 514.18 923.147 509.519ZM956.203 536.522C945.55 527.878 934.912 519.325 924.168 510.35C907.132 515.015 889.961 519.321 872.656 523.249C883.629 531.68 894.657 540.312 905.523 548.344C922.52 544.708 939.502 540.989 956.203 536.522ZM988.814 562.791C978.381 554.628 967.803 545.941 957.26 537.38C940.586 541.848 923.64 545.575 906.67 549.223C918.231 557.737 929.625 565.628 941.079 573.755C957.161 570.596 973.027 566.794 988.814 562.791ZM1023.62 589.199C1012.45 580.803 1001.29 572.499 989.996 563.689C974.253 567.696 958.439 571.518 942.396 574.689C953.676 582.714 965.047 591.039 976.189 598.583C992.141 595.853 1008 592.855 1023.62 589.199ZM1058.51 615.035C1047.39 607.061 1036.12 598.599 1024.85 590.136C1009.29 593.796 993.498 596.814 977.608 599.556C989.91 607.833 1001.99 615.33 1014.14 623.111C1029.13 620.984 1043.85 618.072 1058.51 615.035ZM1094.41 639.953C1083 632.196 1071.54 624.317 1059.98 616.051C1045.36 619.105 1030.66 621.977 1015.72 624.12C1027.35 631.57 1038.99 639.067 1050.46 645.969C1065.28 644.452 1079.93 642.451 1094.41 639.953ZM1131.58 664.466C1119.8 656.941 1107.93 649.148 1095.96 641.033C1081.62 643.534 1067.12 645.571 1052.45 647.116C1064.74 654.471 1076.9 661.417 1089.01 668.181C1103.33 667.338 1117.6 666.306 1131.58 664.466ZM1167.53 686.851C1156.33 680.189 1144.95 672.96 1133.56 665.695C1119.64 667.562 1105.4 668.532 1091.14 669.41C1103.44 676.242 1115.6 682.632 1127.7 688.817M1206.48 708.704C1194.27 702.066 1182.09 695.506 1169.66 688.179C1156.81 689.242 1143.9 690.168 1130.72 690.33C1142.26 696.247 1153.84 702.314 1165.15 707.53C1179.04 708.275 1192.95 709.039 1206.48 708.704ZM1241.68 727.43C1230.98 722.154 1220.02 716.083 1209.09 710.123C1195.84 710.509 1182.23 709.863 1168.61 709.213C1181.67 715.114 1194.44 720.11 1207.24 725.223C1218.92 726.547 1230.28 726.906 1241.68 727.43ZM1280.76 745.158C1269.21 740.182 1257.57 734.97 1245.78 729.289C1234.9 728.871 1224.13 728.761 1212.99 727.607C1223.48 731.72 1233.84 735.458 1244.13 738.953C1256.44 741.297 1268.78 743.751 1280.76 745.158ZM1311.97 757.714C1303.16 754.4 1294.33 751.024 1285.36 747.242C1275.94 746.218 1266.31 744.567 1256.7 742.96C1275.47 748.901 1293.92 753.876 1311.97 757.714ZM867.219 390.124C859.602 382.619 852.032 375.319 844.379 367.66C823.64 372.75 802.787 377.588 781.886 382.315C790.399 390.25 798.84 397.861 807.329 405.689C827.402 400.769 847.336 395.509 867.219 390.124ZM892.362 414.644C884.276 406.773 876.201 398.961 868.087 390.971C848.223 396.356 828.308 401.62 808.256 406.544C816.997 414.609 825.761 422.772 834.443 430.608C853.861 425.561 873.169 420.25 892.362 414.644ZM918.999 440.587C910.475 432.487 901.809 423.859 893.214 415.476C874.04 421.082 854.752 426.396 835.358 431.447C844.777 439.933 854.133 448.167 863.493 456.42C882.095 451.393 900.65 446.252 918.999 440.587ZM947.076 466.573C938 458.126 929.022 450.054 919.894 441.414C901.561 447.08 883.014 452.209 864.436 457.24C874.194 465.836 883.921 474.295 893.608 482.631C911.583 477.679 929.377 472.246 947.076 466.573ZM976.398 493.717C966.983 485.176 957.461 476.241 947.967 467.4C930.291 473.073 912.521 478.514 894.574 483.47C904.628 492.122 914.682 500.765 924.653 509.098C942.033 504.323 959.314 499.284 976.398 493.717ZM1007.16 521.094C997.227 512.328 987.315 503.625 977.297 494.552C960.256 500.115 943.011 505.158 925.671 509.933C936.399 518.884 947.04 527.48 957.678 536.088C974.36 531.601 990.793 526.428 1007.16 521.094ZM1038.67 548.541C1028.55 539.886 1018.36 530.963 1008.14 521.949C991.802 527.287 975.381 532.444 958.723 536.939C969.336 545.536 979.966 554.183 990.47 562.385C1006.71 558.237 1022.77 553.608 1038.67 548.541ZM1072.07 576.568C1061.33 567.7 1050.55 558.714 1039.69 549.428C1023.84 554.49 1007.84 559.127 991.656 563.276C1002.94 572.053 1014.09 580.413 1025.25 588.773C1040.98 585.058 1056.69 581.26 1072.07 576.568ZM1105.18 603.433C1094.59 595.033 1083.92 586.327 1073.2 577.49C1057.86 582.186 1042.17 585.984 1026.48 589.711C1037.85 598.228 1049.2 606.659 1060.44 614.688C1075.56 611.513 1090.42 607.605 1105.18 603.433ZM1140.24 630.526C1129.02 622.024 1117.77 613.428 1106.4 604.422C1091.72 608.59 1076.95 612.521 1061.91 615.701C1073.46 623.935 1084.92 631.881 1096.31 639.599C1111.11 637.003 1125.82 634.178 1140.24 630.526ZM1175.13 656.516C1164.08 648.569 1152.84 640.052 1141.61 631.546C1127.25 635.21 1112.6 638.062 1097.86 640.678C1110.01 648.881 1122.03 656.657 1134 664.257C1147.95 662.362 1161.54 659.435 1175.13 656.516ZM1211.55 681.595C1199.98 673.779 1188.43 666.077 1176.67 657.67C1163.22 660.589 1149.78 663.568 1135.96 665.482C1147.35 672.716 1158.76 680.043 1169.94 686.654C1183.99 685.472 1197.9 683.896 1211.55 681.595ZM1247.5 705.588C1236.3 698.548 1224.78 690.55 1213.35 682.805C1199.8 685.125 1186.01 686.764 1172.07 687.982C1184.65 695.345 1196.95 701.841 1209.3 708.492C1222.23 708.098 1234.92 706.998 1247.5 705.588ZM1284.78 727.512C1273.22 720.866 1261.68 714.303 1249.9 706.998C1237.4 708.452 1224.75 709.461 1211.9 709.906C1223.41 716.099 1234.88 722.194 1246.15 727.658M1322.2 747.998C1310.73 742.077 1299.13 735.758 1287.39 729.053C1275.19 729.703 1262.81 729.888 1250.25 729.521C1262.07 735.183 1273.82 740.608 1285.38 745.477C1297.83 746.813 1310.13 747.711 1322.2 747.998ZM1356.98 765.199C1346.91 760.617 1336.61 755.33 1326.3 750.027C1314.42 749.842 1302.21 748.767 1289.97 747.553C1301.81 752.395 1313.36 756.39 1324.94 760.436C1335.76 762.441 1346.44 764.017 1356.98 765.199ZM1391.84 779.445C1381.79 775.552 1371.84 771.967 1361.58 767.472C1353.56 766.653 1345.66 766.164 1337.47 764.86C1356.02 770.947 1374.13 775.777 1391.84 779.445ZM928.273 372.691C921.625 365.71 914.954 358.618 908.255 351.429C887.509 356.952 866.62 362.184 845.696 367.329C853.368 374.992 860.946 382.245 868.587 389.765C888.593 384.333 908.472 378.6 928.273 372.691ZM951.322 396.479C943.902 388.78 936.541 381.338 929.093 373.534C909.308 379.443 889.453 385.184 869.459 390.612C877.557 398.578 885.624 406.41 893.691 414.25C913.01 408.593 932.243 402.719 951.322 396.479ZM975.736 421.681C967.901 413.687 960.008 405.485 952.122 397.31C933.063 403.55 913.846 409.424 894.539 415.086C903.158 423.473 911.831 432.046 920.379 440.161C938.993 434.394 957.402 428.118 975.736 421.681ZM1001.54 447.769C993.237 439.468 984.902 431.029 976.54 422.504C958.23 428.941 939.841 435.201 921.255 440.965C930.378 449.597 939.368 457.705 948.444 466.14C966.297 460.403 983.988 454.265 1001.54 447.769ZM1029.46 475.181C1020.43 466.337 1011.45 457.65 1002.37 448.588C984.835 455.081 967.164 461.227 949.335 466.971C958.813 475.788 968.331 484.747 977.727 493.256C995.102 487.571 1012.41 481.713 1029.46 475.181ZM1057.64 502.853C1048.62 494.225 1039.41 484.955 1030.3 476.004C1013.27 482.536 995.978 488.403 978.626 494.091C988.691 503.192 998.639 511.851 1008.62 520.649C1025.16 515.228 1041.45 509.165 1057.64 502.853ZM1088.15 531.191C1078.26 521.984 1068.49 513.219 1058.51 503.708C1042.36 510.012 1026.1 516.087 1009.61 521.504C1019.8 530.49 1030 539.453 1040.09 548.077C1056.28 542.892 1072.34 537.357 1088.15 531.191ZM1119.22 559.966C1109.27 550.988 1099.15 541.438 1089.09 532.062C1073.3 538.231 1057.27 543.774 1041.11 548.963C1052.01 558.257 1062.8 567.176 1073.59 576.06C1089.02 571.313 1104.15 565.722 1119.22 559.966ZM1151.62 588.399C1141.17 579.283 1130.78 570.407 1120.21 560.892C1105.19 566.648 1090.09 572.211 1074.69 576.962C1085.43 585.807 1096.16 594.6 1106.76 602.995C1121.92 598.674 1136.87 593.808 1151.62 588.399ZM1185.15 617.411C1174.47 608.452 1163.56 598.819 1152.72 589.348C1138.01 594.762 1123.1 599.647 1107.98 603.98C1119.41 612.998 1130.67 621.516 1141.94 630.029C1156.52 626.291 1170.99 622.268 1185.15 617.411ZM1219.14 644.882C1208.24 636.148 1197.42 627.685 1186.36 618.462C1172.26 623.316 1157.82 627.303 1143.31 631.054C1154.59 639.579 1165.9 648.215 1177 656.161C1191.28 653.041 1205.28 649.168 1219.14 644.882ZM1254.27 672.869C1243.19 664.454 1231.79 655.038 1220.5 645.973C1206.71 650.271 1192.76 654.179 1178.54 657.315C1190.38 665.742 1201.97 673.362 1213.61 681.194C1227.31 678.818 1241 676.403 1254.27 672.869ZM1289.79 698.461C1278.5 690.405 1267.31 682.64 1255.83 673.992C1242.63 677.542 1229.03 680 1215.41 682.395C1227.1 690.263 1238.82 698.225 1250.28 705.375C1263.71 703.788 1276.79 701.254 1289.79 698.461ZM1326.3 723.84C1314.88 716.268 1303.26 708.086 1291.59 699.765C1278.78 702.558 1265.91 705.166 1252.68 706.79C1264.44 714.054 1276.02 720.744 1287.56 727.323C1300.63 726.598 1313.66 725.771 1326.3 723.84ZM1362.12 746.572C1351.02 739.831 1339.78 732.677 1328.44 725.2C1315.95 727.162 1303.09 728.08 1290.17 728.856C1302.49 735.817 1314.61 742.191 1326.64 748.306C1338.73 748.463 1350.42 747.502 1362.12 746.572ZM1399.87 768.059C1388.27 761.764 1376.63 755.381 1364.74 748.235C1353.5 749.192 1342.34 750.386 1330.73 750.327C1341.08 755.622 1351.49 761.098 1361.56 765.593C1374.5 766.897 1387.39 768.055 1399.87 768.059ZM1432.95 785.634C1423.24 780.981 1413.18 775.308 1403.2 769.848C1391.5 769.938 1379.45 769.032 1367.34 767.969C1380.01 773.378 1392.44 778.09 1404.77 782.518C1414.39 784.208 1423.59 784.692 1432.95 785.634ZM1470.86 801.767C1460.43 797.626 1449.87 793.155 1439.18 788.289C1430.32 787.533 1421.51 786.93 1412.41 785.492C1432.44 792.454 1451.98 798.028 1470.86 801.767ZM989.212 353.58C983.428 347.103 977.581 340.394 971.749 333.743C951.105 339.696 930.386 345.511 909.537 351.07C916.251 358.256 922.934 365.3 929.602 372.297C949.587 366.317 969.455 360.064 989.212 353.58ZM1009.92 376.363C1003.26 369.019 996.652 361.904 989.957 354.431C970.224 360.911 950.384 367.164 930.414 373.144C937.842 380.921 945.195 388.371 952.599 396.045C971.82 389.742 990.966 383.277 1009.92 376.363ZM1032.06 400.489C1024.93 392.72 1017.83 385.065 1010.68 377.186C991.743 384.096 972.609 390.565 953.408 396.869C961.289 405.039 969.191 413.269 977.025 421.247C995.536 414.731 1013.85 407.722 1032.06 400.489ZM1055.78 426.337C1048.18 418.202 1040.48 409.669 1032.81 401.316C1014.61 408.546 996.317 415.562 977.817 422.082C986.196 430.608 994.531 438.976 1002.85 447.284C1020.65 440.678 1038.31 433.74 1055.78 426.337ZM1081.55 453.481C1073.22 444.72 1064.93 436.131 1056.54 427.161C1039.09 434.559 1021.45 441.497 1003.68 448.1C1012.75 457.137 1021.72 465.844 1030.72 474.657C1047.85 468.062 1064.78 460.955 1081.55 453.481ZM1108.32 481.28C1099.69 472.384 1091.05 463.441 1082.35 454.313C1065.59 461.786 1048.67 468.889 1031.56 475.48C1040.69 484.435 1049.92 493.721 1058.96 502.357C1075.61 495.837 1092.05 488.769 1108.32 481.28ZM1136.89 510.626C1127.72 501.388 1118.4 491.688 1109.13 482.123C1092.89 489.608 1076.49 496.676 1059.87 503.192C1069.83 512.671 1079.6 521.448 1089.48 530.636C1105.44 524.38 1121.33 517.915 1136.89 510.626ZM1166.45 539.661C1156.89 530.277 1147.41 521.169 1137.77 511.485C1122.22 518.773 1106.36 525.246 1090.42 531.506C1100.5 540.883 1110.64 550.503 1120.6 559.474C1136.13 553.505 1151.35 546.737 1166.45 539.661ZM1197.17 569.835C1187.37 560.498 1177.31 550.338 1167.38 540.568C1152.3 547.647 1137.1 554.427 1121.61 560.4C1132.2 569.918 1142.59 578.715 1153.07 587.84C1167.96 582.344 1182.71 576.485 1197.17 569.835ZM1229.51 599.592C1219.06 589.971 1208.75 580.799 1198.18 570.773C1183.75 577.423 1169.03 583.289 1154.18 588.797C1165.05 598.276 1176 608.003 1186.71 616.958C1201.26 611.927 1215.42 605.836 1229.51 599.592ZM1262.05 629.513C1251.72 620.365 1241.1 610.288 1230.61 600.604C1216.55 606.852 1202.44 612.963 1187.93 618.005C1199.03 627.24 1209.86 635.624 1220.8 644.366C1234.77 639.993 1248.54 635.115 1262.05 629.513ZM1296.69 658.954C1285.57 649.546 1274.56 640.501 1263.27 630.553C1249.81 636.163 1236.08 641.064 1222.17 645.453C1233.51 654.53 1244.93 663.847 1256.07 672.274C1269.87 668.536 1283.37 663.997 1296.69 658.954ZM1330.75 687.414C1320 678.779 1309.01 669.398 1298.06 660.12C1284.82 665.167 1271.35 669.647 1257.63 673.401C1269.17 682.076 1280.48 689.991 1291.82 698.051C1305.03 695.144 1318.01 691.606 1330.75 687.414ZM1366.94 715.343C1355.49 706.699 1344 697.973 1332.31 688.624C1319.65 692.831 1306.76 696.42 1293.62 699.352C1305.39 707.696 1317.07 715.772 1328.6 723.36C1341.6 721.288 1354.43 718.742 1366.94 715.343ZM1402.22 741.029C1391.18 733.284 1380.04 725.227 1368.76 716.745C1356.36 720.161 1343.61 722.611 1330.73 724.719C1342.21 732.263 1353.65 739.646 1364.86 746.399C1377.57 745.292 1390.01 743.472 1402.22 741.029ZM1438.61 765.873C1427.41 758.687 1415.88 750.575 1404.38 742.499C1392.31 744.973 1380.03 746.895 1367.49 748.061C1379.6 755.263 1391.41 761.543 1403.22 767.87C1415.22 767.756 1427.07 767.24 1438.61 765.873ZM1474.78 787.352C1463.67 780.981 1452.65 774.863 1441.26 767.677C1429.96 769.087 1418.29 769.458 1406.55 769.659C1417.64 775.572 1428.67 781.312 1439.45 786.319C1451.46 787.308 1463.23 787.655 1474.78 787.352ZM1510.44 806.715C1499.85 801.44 1489.04 795.519 1478.13 789.302C1467.48 789.676 1456.7 789.7 1445.65 788.963C1456.46 793.868 1467.23 798.647 1477.71 802.626C1488.84 804.607 1499.71 805.872 1510.44 806.715ZM1542.81 821.757C1534.26 818.156 1525.48 813.909 1516.69 809.622C1506.43 809 1495.83 807.397 1485.19 805.706C1505.04 812.877 1524.18 817.998 1542.81 821.757ZM1752.74 20.7259C1743.79 25.7883 1734.95 30.6814 1726.21 35.3814C1687.97 459.576 1557.24 663.769 1370.76 716.324C1382.15 724.833 1393.35 732.772 1404.49 740.541C1597.99 700.38 1728.82 488.718 1752.74 20.7259ZM1780.13 4.9042C1771.28 10.1164 1762.5 15.1946 1753.82 20.1152C1730.14 488.517 1599.73 700.979 1406.64 742.01C1418.29 750.153 1430.01 758.525 1441.34 765.719C1642.17 740.131 1772.27 520.062 1780.13 4.9042ZM86.6699 457.665C65.0518 459.777 43.4732 461.751 21.9024 463.685C38.1702 468.885 54.434 473.893 70.7097 478.841C91.3421 477.565 112.006 476.095 132.662 474.582C117.333 469.106 102.003 463.409 86.6699 457.665ZM153.945 450.802C132.291 453.107 110.658 455.302 89.0395 457.421C104.495 463.197 119.943 468.882 135.394 474.389C156.145 472.861 176.904 471.159 197.658 469.382C183.102 463.409 168.521 457.067 153.945 450.802ZM221.062 443.313C199.417 445.815 177.771 448.269 156.141 450.578C170.796 456.862 185.451 463.181 200.091 469.177C220.995 467.377 241.896 465.43 262.788 463.37C248.902 456.921 234.976 450.066 221.062 443.313ZM288.14 435.221C266.455 437.932 244.774 440.575 223.093 443.085C237.019 449.829 250.956 456.72 264.854 463.169C285.921 461.085 306.979 458.879 328.017 456.519C314.75 449.628 301.443 442.427 288.14 435.221ZM355.167 426.514C333.462 429.438 311.753 432.27 290.033 434.989C303.34 442.186 316.65 449.416 329.922 456.298C351 453.927 372.066 451.464 393.104 448.813C380.483 441.532 367.835 434.09 355.167 426.514ZM422.135 417.162C400.422 420.306 378.697 423.339 356.953 426.27C369.617 433.842 382.269 441.312 394.886 448.577C415.964 445.909 437.034 443.183 458.053 440.221C446.095 432.613 434.136 425.041 422.135 417.162ZM489.031 407.151C467.322 410.527 445.59 413.758 423.838 416.914C435.832 424.777 447.79 432.381 459.744 439.972C480.755 437.006 501.727 433.846 522.659 430.576C511.45 422.752 500.28 415.188 489.031 407.151ZM555.936 396.435C534.215 400.052 512.447 403.499 490.667 406.891C501.92 414.924 513.094 422.52 524.307 430.328C545.286 427.038 566.202 423.524 587.091 419.927C576.702 412.099 566.364 404.508 555.936 396.435ZM622.84 384.912C601.076 388.788 579.269 392.535 557.43 396.175C567.89 404.259 578.252 411.82 588.668 419.659C609.632 416.039 630.532 412.217 651.393 408.274C641.884 400.556 632.389 392.87 622.84 384.912ZM689.563 372.577C667.85 376.705 646.11 380.771 624.303 384.66C633.876 392.626 643.378 400.265 652.904 407.986C673.843 404.015 694.72 399.878 715.538 395.572C706.911 388.052 698.241 380.326 689.563 372.577ZM756.18 359.454C734.499 363.854 712.782 368.16 690.99 372.313C699.688 380.07 708.358 387.74 717.005 395.269C737.913 390.935 758.766 386.464 779.529 381.78C771.789 374.539 763.955 366.868 756.18 359.454ZM822.67 345.507C801.029 350.188 779.339 354.754 757.568 359.174C765.362 366.6 773.197 374.208 780.948 381.453C801.876 376.725 822.761 371.883 843.527 366.793C836.612 359.855 829.609 352.551 822.67 345.507ZM889.027 330.698C867.432 335.67 845.767 340.504 824.027 345.212C830.95 352.232 837.948 359.552 844.84 366.458C865.784 361.313 886.693 356.085 907.451 350.562C901.316 343.975 895.165 337.305 889.027 330.698ZM955.241 314.995C933.698 320.274 912.064 325.391 890.359 330.395C896.478 336.974 902.625 343.66 908.733 350.207C929.594 344.648 950.325 338.826 970.977 332.873C965.725 326.881 960.493 320.971 955.241 314.995ZM1306.11 213.277C1193.28 251.743 1076.24 285.309 956.546 314.672C961.786 320.628 967.01 326.534 972.254 332.518C1087.37 299.279 1199.1 259.733 1306.11 213.277ZM1344.48 199.799C1336.59 202.588 1328.67 205.35 1320.77 208.128C1209.59 257.251 1093.11 298.704 973.023 333.393C978.842 340.035 984.674 346.736 990.442 353.182C1114.01 312.532 1232.78 261.994 1344.48 199.799ZM1376.03 188.626C1367.63 191.687 1359.14 194.646 1350.67 197.624C1237.4 261.234 1116.75 312.71 991.187 354.029C997.89 361.494 1004.48 368.542 1011.15 375.89C1140.27 328.677 1262.87 267.069 1376.03 188.626ZM1407.42 176.827C1398.37 180.231 1389.35 183.674 1380.25 187.038C1266.13 266.655 1142.34 328.996 1011.91 376.713C1019.06 384.581 1026.16 392.255 1033.29 400.016C1167.78 346.496 1293.84 273.49 1407.42 176.827ZM1437.37 165.571C1428.46 169.022 1419.42 172.336 1410.43 175.7C1296.26 273.345 1169.41 346.941 1034.05 400.84C1041.69 409.172 1049.39 417.713 1056.97 425.817C1196.19 366.636 1324.74 281.894 1437.37 165.571ZM1467.52 153.555C1458.25 157.255 1449.07 161.041 1439.74 164.681C1326.72 281.894 1197.6 367.14 1057.73 426.641C1066.15 435.635 1074.45 444.168 1082.82 452.957C1226.59 388.678 1356.98 291.499 1467.52 153.555ZM1497.04 141.681C1487.94 145.424 1478.75 149.068 1469.57 152.728C1358.76 291.546 1227.92 389.21 1083.62 453.781C1092.29 462.885 1100.93 471.848 1109.54 480.708C1257.72 412.217 1389.71 303.03 1497.04 141.681ZM1526.43 129.382C1517.25 133.27 1508.07 137.155 1498.81 140.968C1391.3 303.16 1258.96 412.793 1110.36 481.555C1119.65 491.121 1128.95 500.742 1138.15 509.984C1290.66 438.223 1423.48 316.106 1526.43 129.382ZM1555.43 116.901C1546.3 120.88 1537.14 124.827 1527.94 128.732C1424.89 316.236 1291.85 438.818 1139.01 510.843C1148.67 520.523 1158.18 529.702 1167.74 539.071C1324.55 465.194 1458.02 330.879 1555.43 116.901ZM1584.14 104.306C1575.08 108.371 1565.93 112.335 1556.79 116.314C1459.34 331.053 1325.71 465.84 1168.67 539.981C1178.63 549.751 1188.68 559.836 1198.5 569.173C1359.74 494.556 1493.4 347.627 1584.14 104.306ZM1612.76 91.1118C1603.66 95.3193 1594.6 99.5702 1585.44 103.707C1494.71 347.804 1360.95 495.21 1199.52 570.107C1210.11 580.138 1220.47 589.4 1230.93 599.012C1396.57 525.041 1529.99 365.797 1612.76 91.1118ZM1641.07 78.0558C1632.15 82.3106 1623.02 86.3763 1614 90.5405C1531.28 366.001 1397.81 525.754 1232.03 600.021C1242.56 609.713 1253.18 619.692 1263.55 628.847C1434.1 557.433 1567.37 386.511 1641.07 78.0558ZM1669.32 64.1251C1660.29 68.5651 1651.37 73.1194 1642.26 77.4884C1568.65 386.696 1435.39 558.135 1264.77 629.891C1276.1 639.851 1287.17 649.018 1298.32 658.422C1473.7 591.176 1606.11 408.416 1669.32 64.1251ZM1697.3 50.3088C1688.44 54.8 1679.44 59.1572 1670.48 63.5539C1607.4 408.585 1475.07 591.941 1299.69 659.581C1310.7 668.87 1321.71 678.144 1332.51 686.796C1513.59 626.235 1645.73 433.306 1697.3 50.3088ZM1705.52 46.2509C1703.18 47.4446 1700.79 48.5792 1698.43 49.7533C1647.04 433.409 1515.05 626.948 1334.08 688.009C1345.84 697.382 1357.44 706.281 1368.95 714.925C1555.65 663.008 1686.66 459.584 1725.11 35.9802C1718.51 39.518 1711.98 42.9455 1705.52 46.2509ZM1642.54 76.1805C1651.63 71.8232 1660.52 67.2847 1669.53 62.8526C1672.77 45.1478 1675.61 26.529 1678.46 7.89834C1670.12 13.7566 1661.84 19.6937 1653.41 25.4416C1649.9 42.5988 1646.42 59.8506 1642.54 76.1805ZM1614.35 89.2207C1623.35 85.0723 1632.45 81.0184 1641.35 76.7754C1645.21 60.5558 1648.66 43.3631 1652.16 26.3241C1643.87 31.9381 1635.42 37.3552 1627.02 42.8313C1622.87 58.4638 1618.82 74.3052 1614.35 89.2207ZM1585.9 102.336C1595.03 98.215 1604.06 93.9838 1613.12 89.7881C1617.57 74.9789 1621.58 59.1927 1625.72 43.6665C1617.27 49.182 1608.81 54.6818 1600.28 60.083C1595.54 74.2816 1590.93 88.7756 1585.9 102.336ZM1557.37 114.919C1566.47 110.948 1575.58 106.989 1584.6 102.935C1589.6 89.4886 1594.16 75.0616 1598.87 60.9852C1590.39 66.3313 1581.86 71.5947 1573.28 76.8148C1568.01 89.5753 1562.9 102.706 1557.37 114.919ZM1528.69 127.266C1537.84 123.385 1546.94 119.462 1556.01 115.506C1561.5 103.404 1566.56 90.3396 1571.8 77.6973C1563.3 82.87 1554.71 87.9285 1546.11 92.9792C1540.31 104.436 1534.71 116.286 1528.69 127.266ZM1499.82 139.432C1509 135.642 1518.1 131.769 1527.21 127.908C1533.18 117.054 1538.72 105.295 1544.46 93.9641C1535.8 99.0423 1527.18 104.164 1518.44 109.136C1512.25 119.261 1506.22 129.74 1499.82 139.432ZM1471.04 151.006C1480.1 147.39 1489.18 143.793 1498.17 140.094C1504.52 130.512 1510.5 120.155 1516.64 110.125C1508.16 114.927 1499.53 119.536 1490.95 124.205C1484.33 133.179 1477.85 142.434 1471.04 151.006ZM1441.61 162.841C1450.8 159.24 1459.85 155.486 1468.98 151.834C1475.75 143.352 1482.22 134.263 1488.8 125.383C1480.01 130.185 1471.31 135.102 1462.46 139.826C1455.54 147.559 1448.7 155.45 1441.61 162.841ZM1412.99 173.608C1421.74 170.33 1430.56 167.112 1439.23 163.747C1446.24 156.479 1453.03 148.784 1459.87 141.181C1451.61 145.534 1443.18 149.639 1434.81 153.843C1427.57 160.497 1420.39 167.25 1412.99 173.608ZM1384.09 184.47C1392.75 181.259 1401.36 177.989 1409.99 174.735C1417.24 168.534 1424.33 162.03 1431.43 155.549C1422.91 159.867 1414.41 164.2 1405.85 168.471C1398.63 173.876 1391.44 179.309 1384.09 184.47ZM1356.53 194.449C1364.34 191.679 1372.12 188.894 1379.86 186.061C1386.79 181.224 1393.64 176.24 1400.46 171.205C1392.91 174.912 1385.24 178.462 1377.58 182.015C1370.6 186.207 1363.63 190.431 1356.53 194.449ZM1333.52 202.529C1339.13 200.563 1344.75 198.609 1350.34 196.624C1356.34 193.251 1362.32 189.836 1368.26 186.357C1356.7 191.766 1345.21 197.286 1333.52 202.529ZM0.375036 464.528C5.80814 464.059 11.2452 463.583 16.6822 463.098C11.2452 461.349 5.81208 459.517 0.375036 457.736V456.637C6.69526 458.709 13.0155 460.829 19.3396 462.854C41.0169 460.92 62.7099 458.942 84.4383 456.826C56.4054 446.299 28.3764 435.249 0.375036 423.8V422.646C29.165 434.425 57.9864 445.787 86.8079 456.586C108.497 454.466 130.214 452.252 151.938 449.944C101.416 428.201 50.8304 404.708 0.375036 379.814V378.64C51.5637 403.901 102.882 427.708 154.134 449.723C175.835 447.414 197.548 444.96 219.268 442.454C146.367 407.017 73.2054 367.64 0.375036 325.399V324.158C73.8797 366.801 147.727 406.521 221.295 442.222C243.035 439.708 264.776 437.065 286.516 434.354C191.35 382.745 95.4977 323.934 0.375036 260.391V259.083C96.1286 323.059 192.623 382.245 288.416 434.122C310.184 431.404 331.94 428.571 353.692 425.644C236.388 355.337 117.684 273.384 0.375036 184.623V183.249C118.279 272.474 237.59 354.836 355.478 425.404C377.262 422.469 399.026 419.439 420.778 416.291C281.485 324.773 139.712 215.798 0.375036 98.0219V96.5879C140.275 214.864 282.636 324.273 422.482 416.047C444.269 412.887 466.037 409.657 487.777 406.28C326.653 291.022 161.562 150.955 0.426292 0.546942H2.04282C163.207 150.908 328.305 290.896 489.41 406.016C511.237 402.62 533.052 399.173 554.82 395.553C407.866 281.764 257.071 146.161 108.686 0.546942H110.165C258.578 146.125 409.38 281.645 556.314 395.297C578.177 391.656 600.004 387.898 621.783 384.021C487.6 272.143 349.754 141.118 213.208 0.546942H214.667C351.24 141.078 489.09 272.025 623.258 383.769C645.089 379.881 666.849 375.815 688.585 371.686C566.001 262.132 439.995 135.827 314.486 0.546942H315.929C441.446 135.78 567.452 261.998 690.005 371.418C711.816 367.27 733.552 362.956 755.253 358.559C643.299 251.728 528.179 130.315 412.995 0.546942H414.423C529.614 130.26 644.722 251.582 756.641 358.284C778.429 353.859 800.138 349.293 821.795 344.617C719.67 240.929 614.651 124.54 509.186 0.546942H510.606C616.066 124.473 721.062 240.764 823.151 344.321C844.907 339.614 866.589 334.78 888.199 329.808C795.193 229.662 699.578 118.532 603.272 0.546942H604.684C700.977 118.453 796.565 229.48 889.531 329.5C911.252 324.497 932.902 319.379 954.457 314.1C869.956 217.878 783.14 112.299 695.481 0.546942H696.889C784.524 112.213 871.308 217.685 955.762 313.773C1080.85 283.103 1202.97 247.741 1320.5 207.099C1339.57 198.672 1358.42 189.938 1377.16 181.054C1395.8 170.137 1414.3 159.004 1432.5 147.394C1449.72 134.125 1466.71 120.446 1483.44 106.342C1499.72 90.0047 1515.78 73.273 1531.43 55.8046C1544.98 37.9579 1558.23 19.54 1571.17 0.546942H1572.57C1568.16 8.27655 1563.89 16.2701 1559.36 23.7712C1565.18 16.9517 1570.94 10.0494 1576.63 3.00923C1577.02 2.18978 1577.43 1.37033 1577.82 0.546942H1579.86C1579.07 1.55549 1578.27 2.55617 1577.47 3.55684C1571.56 15.5728 1565.22 26.7181 1559.08 38.281C1566.48 31.0005 1573.72 23.46 1581.03 16.0377C1583.28 10.8216 1585.56 5.69213 1587.85 0.543002H1588.91C1586.92 5.02633 1584.94 9.50966 1582.98 14.06C1587.47 9.53724 1592 5.08149 1596.48 0.543002H1597.89C1592.59 5.96791 1587.21 11.2628 1581.87 16.6286C1576.7 28.617 1571.71 40.9639 1566.37 52.6056C1574.15 46.5385 1581.98 40.5542 1589.64 34.3098C1593.7 23.3733 1597.51 11.8853 1601.39 0.543002H1602.47C1598.74 11.5228 1595.03 22.5696 1591.11 33.1515C1599.01 26.6708 1606.75 19.9616 1614.55 13.3351C1615.8 9.12358 1617.02 4.84905 1618.22 0.543002H1619.27C1618.17 4.44326 1617.07 8.31595 1615.93 12.1414C1620.47 8.28837 1624.99 4.43144 1629.49 0.543002H1631.05C1625.87 5.03815 1620.66 9.48208 1615.45 13.9181C1610.85 29.4049 1605.75 43.7689 1600.82 58.4954C1609.31 53.1217 1617.73 47.6534 1626.13 42.1655C1629.81 28.3688 1633.6 14.8085 1637.08 0.543002H1638.09C1634.69 14.4815 1631.02 27.8133 1627.43 41.3224C1635.81 35.8541 1644.22 30.4332 1652.48 24.827C1654.15 16.735 1655.84 8.67839 1657.49 0.539062H1658.52C1656.94 8.38292 1655.33 16.1519 1653.73 23.9446C1662.13 18.2163 1670.38 12.3068 1678.68 6.46431L1679.59 0.546942H1680.65L1679.88 5.63698C1682.32 3.93111 1684.77 2.23705 1687.21 0.546942H1689.05C1685.91 2.71375 1682.77 4.88057 1679.65 7.06314C1676.81 25.8041 1673.93 44.4741 1670.69 62.2853C1679.62 57.8965 1688.61 53.5511 1697.44 49.0678C1699.55 33.3485 1701.41 17.0383 1703.19 0.546942H1704.26C1702.49 16.8492 1700.65 32.9506 1698.57 48.5123C1700.75 47.4328 1702.96 46.3809 1705.12 45.2817C1711.74 41.8936 1718.44 38.3755 1725.21 34.7392C1726.21 23.5742 1727.1 12.1295 1727.94 0.546942H1729C1728.18 11.9207 1727.29 23.1606 1726.31 34.1443C1735.03 29.4483 1743.86 24.5552 1752.79 19.5006C1753.11 13.2563 1753.39 6.92919 1753.65 0.546942H1754.7C1754.45 6.71644 1754.18 12.8387 1753.87 18.886C1762.54 13.9654 1771.29 8.89508 1780.13 3.68685L1780.18 0.543002H1781.23L1781.2 3.06044C1782.61 2.22524 1784.03 1.38609 1785.45 0.543002H1787.5C1785.39 1.79187 1783.29 3.03681 1781.19 4.27386C1773.6 519.329 1644.28 740.537 1444.27 767.5C1455.75 774.646 1466.9 780.855 1478.1 787.186C1685.48 779.405 1815.17 557.047 1807.42 0.543002H1808.48C1816.39 556.177 1687.65 779.559 1481.45 789.132C1493.47 795.846 1505.27 801.913 1516.9 807.519C1730.5 819.799 1859.08 596.475 1835.37 0.546942H1836.44C1860.22 593.517 1733.7 818.794 1522.7 810.217C1531.77 814.642 1540.9 819.239 1549.65 822.753C1773.92 863.036 1904.9 643.495 1863.87 0.546942H1864.95C1905.62 634.729 1779.35 857.974 1561.42 826.764C1810.68 918.767 1954.48 713.743 1892.92 0.546942H1894.01C1957.01 727.689 1807.38 928.726 1550.03 825.105C1526.95 820.929 1502.99 814.303 1478.02 804.812C1454.42 800.569 1429.83 793.592 1404.47 784.346C1378.83 779.776 1352.04 771.932 1324.6 762.165C1298.45 757.272 1271.44 749.945 1243.76 740.584C1217.07 735.462 1189.86 728.816 1161.8 719.605C1136.02 714.614 1109.64 707.83 1082.71 699.367C1054.63 694.128 1025.82 686.622 996.569 677.746C967.826 672.408 938.563 665.439 908.847 656.973C879.864 651.69 850.514 645.232 820.675 637.093C790.261 631.771 759.318 624.679 728.092 616.524C696.782 611.273 665.126 604.808 633.162 597.133C600.796 592.016 568.119 585.712 535.177 578.25C501.778 573.353 468.095 567.282 434.243 560.286C399.318 555.653 364.208 550.133 328.928 543.534C293.112 539.346 257.135 534.158 221.086 528.229C183.453 524.541 145.732 520.058 107.996 514.759C72.1212 512.009 36.2304 508.652 0.378979 504.713V503.157C14.6754 503.862 28.9797 504.476 43.2879 505.016C28.9836 502.692 14.6754 500.194 0.378979 497.633V495.86C18.35 495.793 36.3329 495.632 54.3276 495.344C38.044 491.586 21.7644 487.56 5.48878 483.474L0.375036 483.73V482.69L1.97185 482.611L0.375036 482.209V481.122L5.55581 482.418C26.204 481.386 46.8758 480.283 67.5594 479.014C51.4494 474.106 35.3472 469.094 19.2411 463.929C12.9485 464.489 6.65977 465.044 0.371094 465.584V464.528H0.375036Z" fill="white"/>
</svg>
