<svg width="1909" height="851" viewBox="0 0 1909 851" fill="none" xmlns="http://www.w3.org/2000/svg">
<path opacity="0.5" d="M503.362 683.537C498.678 687.012 493.982 690.459 489.318 693.969C500.136 687.173 511.259 680.862 522.263 674.362C515.927 677.367 509.642 680.444 503.362 683.537ZM448.648 721.712C443.057 727.054 437.49 732.444 431.966 737.912C442.285 729.336 452.524 720.625 463.004 712.332C458.221 715.464 453.411 718.553 448.648 721.712ZM474.449 698.145C467.423 704.539 460.331 710.811 453.395 717.375C460.831 712.478 468.295 707.624 475.758 702.766C483.088 697.137 490.568 691.771 497.968 686.263C490.106 690.191 482.276 694.166 474.449 698.145ZM1816.75 338.675C1830.27 340.649 1843.8 342.524 1857.32 344.656C1871.44 345.164 1885.55 345.869 1899.66 346.539C1872.03 343.588 1844.39 340.929 1816.75 338.675ZM401.028 765.411C397.16 770.217 393.312 775.063 389.483 779.948C398.788 769.839 408.479 760.427 418.017 750.74C412.304 755.542 406.65 760.447 401.028 765.411ZM422.677 739.031C416.736 746.02 410.881 753.174 405.037 760.36C411.484 754.715 418.084 749.329 424.672 743.928C430.898 737.676 437.045 731.29 443.345 725.175C436.422 729.737 429.502 734.307 422.677 739.031ZM446.882 712.115C439.875 719.872 432.771 727.437 425.895 735.45C433.193 730.419 440.664 725.66 448.096 720.838C455.635 713.62 463.41 706.844 471.067 699.855C462.988 703.921 454.85 707.908 446.882 712.115ZM1801.76 344.23C1817.78 347.598 1833.81 351.077 1849.83 354.733C1868.75 354.414 1887.64 354.288 1906.53 354.213C1890.1 351.266 1873.67 348.331 1857.23 345.7C1838.74 345.034 1820.25 344.604 1801.76 344.23ZM1749.91 333.92C1765.4 336.875 1780.9 339.841 1796.4 343.056C1813.49 343.379 1830.58 343.714 1847.66 344.281C1831.98 341.858 1816.29 339.55 1800.6 337.344C1783.7 336.055 1766.81 334.932 1749.91 333.92ZM1703.26 325.339C1716.17 327.554 1729.11 329.969 1742.04 332.427C1756.24 333.238 1770.45 333.983 1784.66 334.996C1757.5 331.316 1730.36 328.16 1703.26 325.339ZM354.066 821.933C349.689 829.103 345.403 836.467 341.11 843.806C349.397 831.794 357.614 819.648 366.134 808.085C362.113 812.703 358.052 817.249 354.066 821.933ZM375.727 788.529C369.777 797.626 363.753 806.561 357.949 815.941C364.104 808.783 370.318 801.731 376.516 794.647C382.997 786.114 389.696 778.002 396.308 769.721C389.412 775.93 382.56 782.214 375.727 788.529ZM395.63 758.418C389.621 767.109 383.81 776.19 377.927 785.133C385.375 778.286 392.803 771.415 400.314 764.674C406.473 757.027 412.56 749.239 418.821 741.789C411.046 747.265 403.35 752.855 395.63 758.418ZM418.451 727.704C411.508 737.018 404.403 746.004 397.653 755.704C405.779 749.869 413.857 743.967 422.042 738.219C429.266 729.718 436.792 721.799 444.177 713.604C435.539 718.222 427.03 723.012 418.451 727.704ZM1790.94 357.262C1806.68 361.695 1822.43 366.395 1838.17 371.177C1858.69 369.909 1879.19 368.841 1899.67 367.801C1883.02 363.66 1866.36 359.599 1849.7 355.777C1830.12 356.112 1810.53 356.66 1790.94 357.262ZM1739.53 343.517C1755.57 347.693 1771.63 351.818 1787.7 356.301C1806.83 355.698 1825.98 355.119 1845.11 354.773C1828.83 351.069 1812.54 347.484 1796.27 344.096C1777.35 343.742 1758.44 343.564 1739.53 343.517ZM1688.57 330.831C1704.22 334.566 1719.88 338.419 1735.56 342.469C1754 342.493 1772.46 342.607 1790.92 342.93C1774.55 339.573 1758.19 336.508 1741.84 333.455C1724.07 332.439 1706.31 331.517 1688.57 330.831ZM1639.48 319.45C1654.09 322.597 1668.75 326.123 1683.39 329.626C1700.24 330.248 1717.1 331.044 1733.97 331.962C1718.44 329.106 1702.92 326.423 1687.41 323.878C1671.43 322.31 1655.43 320.702 1639.48 319.45ZM1594.57 310.487C1606.77 312.855 1618.97 315.266 1631.19 317.791C1644.73 318.811 1658.31 320.143 1671.87 321.388C1646.05 317.322 1620.27 313.662 1594.57 310.487ZM352.126 810.299C346.35 821.145 340.432 831.696 334.845 842.932C340.873 835.525 347.075 828.438 353.265 821.323C359.597 810.953 366.26 801.242 372.774 791.231C365.866 797.547 358.888 803.752 352.126 810.299ZM370.132 776.694C364.538 786.598 359.207 797.035 353.754 807.226C360.689 800.537 367.881 794.269 374.974 787.835C380.959 778.68 386.814 769.264 392.925 760.356C385.312 765.781 377.612 771.076 370.132 776.694ZM391.005 742.746C384.504 753.293 377.793 763.398 371.524 774.425C379.216 768.661 387.118 763.213 394.936 757.646C401.852 747.643 409.177 738.46 416.302 728.882C407.853 733.48 399.352 738.015 391.005 742.746ZM1727.38 359.721C1742.74 364.854 1758.14 370.145 1773.53 375.617C1794.07 374.101 1814.6 372.659 1835.11 371.374C1819.26 366.56 1803.39 361.793 1787.54 357.349C1767.48 357.987 1747.43 358.795 1727.38 359.721ZM1677.94 343.895C1693.51 348.757 1709.09 353.622 1724.69 358.799C1744.46 357.873 1764.24 357.042 1784.02 356.404C1767.8 351.901 1751.58 347.697 1735.37 343.513M1628.66 329.007C1644.01 333.435 1659.4 338.124 1674.79 342.918C1693.65 342.599 1712.52 342.461 1731.4 342.461C1715.31 338.336 1699.22 334.452 1683.15 330.658C1664.98 329.984 1646.79 329.315 1628.66 329.007ZM1580.59 315.687C1595.3 319.576 1610.06 323.708 1624.83 327.947C1642.52 328.227 1660.25 328.83 1677.98 329.452C1662.27 325.761 1646.57 322.152 1630.9 318.827C1614.1 317.566 1597.34 316.589 1580.59 315.687ZM1532.36 303.727C1546.8 307.182 1561.24 310.578 1575.73 314.34C1591.54 315.159 1607.39 316.16 1623.26 317.302C1608.66 314.261 1594.06 311.294 1579.51 308.568C1563.76 306.728 1548.05 305.208 1532.36 303.727ZM1488.98 293.696C1500.99 296.284 1513.05 299.109 1525.12 301.985C1537.89 303.143 1550.65 304.172 1563.46 305.57C1538.54 301.107 1513.71 297.175 1488.98 293.696ZM344.039 797.153C338.799 808.566 333.906 820.712 328.824 832.464C336.327 824.872 343.732 817.115 351.318 809.665C356.857 799.276 362.211 788.497 367.889 778.392C359.854 784.518 352.004 790.92 344.039 797.153ZM363.402 758.855C357.247 770.907 350.844 782.418 344.982 795.104C353.127 788.734 361.159 782.194 369.391 775.953C375.755 764.718 382.587 754.459 389.195 743.735C380.529 748.683 371.993 753.805 363.402 758.855ZM1664.05 363.136C1678.98 368.924 1693.92 374.723 1708.88 380.826C1729.52 379.045 1750.16 377.343 1770.8 375.806C1755.35 370.322 1739.91 364.98 1724.49 359.851C1704.33 360.796 1684.19 361.884 1664.05 363.136ZM1616.71 345.365C1631.71 350.861 1646.73 356.423 1661.77 362.234C1681.77 360.978 1701.78 359.878 1721.81 358.929C1706.05 353.721 1690.3 348.847 1674.57 343.966C1655.27 344.293 1635.97 344.683 1616.71 345.365ZM1570.38 328.731C1584.92 333.688 1599.52 339.089 1614.12 344.439C1633.2 343.749 1652.31 343.332 1671.43 342.989C1655.78 338.151 1640.15 333.467 1624.54 328.988C1606.46 328.704 1588.4 328.641 1570.38 328.731ZM1522.62 313.363C1537.43 318.031 1552.24 322.672 1567.11 327.676C1584.95 327.565 1602.83 327.668 1620.72 327.924C1605.6 323.594 1590.48 319.296 1575.41 315.36C1557.77 314.45 1540.18 313.863 1522.62 313.363ZM1475.24 299.089C1489.81 303.297 1504.39 307.631 1519.02 312.208C1536.17 312.669 1553.33 313.158 1570.54 314.017C1555.25 310.093 1540.01 306.595 1524.77 303.017C1508.22 301.516 1491.71 300.173 1475.24 299.089ZM1429.56 286.227C1443.14 289.772 1456.83 293.795 1470.5 297.754C1486.14 298.747 1501.82 299.913 1517.54 301.28C1503.03 297.927 1488.56 294.815 1474.11 291.829C1459.24 289.855 1444.35 287.814 1429.56 286.227ZM1387.46 276.141C1398.93 278.836 1410.4 281.491 1421.92 284.359C1434.46 285.651 1447.1 287.365 1459.7 288.937C1435.51 284.138 1411.42 279.856 1387.46 276.141ZM336.268 774.992C330.729 788.253 324.948 800.994 319.732 814.964C327.464 808.664 335.369 802.609 343.223 796.487C349.121 783.675 355.552 772.006 361.75 759.836C353.226 764.844 344.698 769.859 336.268 774.992ZM1600.93 367.525C1615.32 373.904 1629.71 380.16 1644.13 386.83C1664.89 384.773 1685.67 382.831 1706.44 381.03C1691.46 374.92 1676.49 369.077 1661.53 363.298C1641.31 364.567 1621.11 365.934 1600.93 367.525ZM1556.01 348.067C1570.3 354.063 1584.62 360.296 1598.95 366.643C1619.03 365.051 1639.14 363.668 1659.25 362.396C1644.1 356.565 1628.97 351.002 1613.85 345.495C1594.55 346.196 1575.25 346.996 1556.01 348.067ZM1511.2 329.807C1525.33 335.382 1539.52 341.193 1553.71 347.134C1572.86 346.054 1592.06 345.278 1611.27 344.565C1596.41 339.148 1581.54 333.735 1566.73 328.716M1465.28 312.461C1479.76 317.799 1494.24 323.125 1508.79 328.826C1526.99 328.29 1545.2 327.798 1563.46 327.66C1548.5 322.637 1533.58 317.905 1518.67 313.241C1500.84 312.768 1483.04 312.5 1465.28 312.461ZM1419.49 296.032C1433.76 300.89 1448.1 306.138 1462.45 311.421C1479.95 311.432 1497.49 311.645 1515.09 312.086C1500.05 307.422 1485.07 303.069 1470.11 298.794C1453.21 297.726 1436.29 296.643 1419.49 296.032ZM1374.3 281.4C1388.16 285.718 1402.06 290.198 1415.99 294.898C1432.39 295.461 1448.89 296.458 1465.38 297.458C1450.72 293.279 1436.07 289.146 1421.5 285.411C1405.7 283.788 1389.99 282.574 1374.3 281.4ZM1329.48 268.222C1342.88 272 1356.29 275.794 1369.78 279.939C1384.61 281.006 1399.49 282.247 1414.42 283.721C1400.62 280.27 1386.86 276.972 1373.14 273.868C1358.53 271.732 1343.99 269.932 1329.48 268.222ZM1289.09 257.026C1300.21 259.835 1311.46 263.136 1322.68 266.335C1334.88 267.718 1347.04 268.88 1359.32 270.566C1335.75 265.401 1312.34 260.934 1289.09 257.026ZM309.331 791.673C304.395 806.32 299.273 820.543 294.684 835.958C302.518 829.308 310.321 822.619 318.258 816.122C323.482 802.089 329.234 789.206 334.782 775.871C326.25 781.075 317.769 786.35 309.331 791.673ZM1537.98 372.927C1551.68 379.793 1565.36 386.581 1579.1 393.689C1600.06 391.329 1621.04 389.126 1642.03 387.038C1627.56 380.357 1613.12 374.104 1598.67 367.718C1578.42 369.326 1558.18 370.98 1537.98 372.927ZM1495.92 352.145C1509.32 358.507 1522.78 365.315 1536.23 372.06C1556.35 370.114 1576.52 368.447 1596.69 366.832C1582.23 360.45 1567.78 354.221 1553.36 348.185C1534.17 349.273 1515.04 350.679 1495.92 352.145ZM1452.27 332.222C1466.14 338.466 1480.01 344.66 1493.94 351.239C1512.95 349.773 1531.98 348.339 1551.06 347.248C1536.83 341.303 1522.61 335.437 1508.44 329.874C1489.68 330.429 1470.95 331.229 1452.27 332.222ZM1408.34 313C1422.27 318.902 1436.24 325.005 1450.24 331.292C1468.79 330.292 1487.39 329.464 1506.05 328.893C1491.34 323.157 1476.71 317.838 1462.07 312.472C1444.12 312.465 1426.18 312.536 1408.34 313ZM1364.8 295.008C1378.48 300.413 1392.25 306.212 1406.01 312.039C1423.69 311.562 1441.46 311.448 1459.24 311.432C1444.65 306.098 1430.08 300.862 1415.58 295.961C1398.59 295.378 1381.67 295.103 1364.8 295.008ZM1320.38 278.363C1334.27 283.441 1348.14 288.425 1362.12 293.897C1378.71 293.964 1395.37 294.287 1412.08 294.827C1397.79 290.024 1383.53 285.352 1369.34 280.979C1352.94 279.801 1336.65 279.029 1320.38 278.363ZM1276.35 262.782C1289.85 267.289 1303.44 272.178 1317.05 277.142C1332.93 277.76 1348.82 278.414 1364.83 279.517C1350.56 275.195 1336.39 271.315 1322.22 267.399C1306.88 265.669 1291.56 264.015 1276.35 262.782ZM1232.88 249.013C1245.83 252.909 1258.84 257.061 1271.89 261.371C1286.34 262.498 1300.87 263.944 1315.43 265.52C1301.94 261.824 1288.47 258.275 1275.09 255.032C1260.96 252.802 1246.88 250.77 1232.88 249.013ZM1194.01 238.06C1204.76 240.968 1215.48 243.761 1226.31 246.928C1237.95 248.335 1249.71 250.198 1261.44 251.928C1238.8 246.712 1216.31 242.047 1194.01 238.06ZM1475.51 379.545C1488.38 386.711 1501.25 393.964 1514.16 401.398C1535.15 398.743 1556.16 396.281 1577.18 393.905C1563.4 386.782 1549.67 380.01 1535.92 373.143C1515.76 375.097 1495.62 377.244 1475.51 379.545ZM1435.3 357.495C1448.13 364.318 1461.02 371.489 1473.91 378.667C1493.96 376.362 1514.06 374.238 1534.18 372.277C1520.63 365.5 1507.06 358.704 1493.57 352.306C1474.09 353.815 1454.68 355.584 1435.3 357.495ZM1393.59 336.024C1406.94 342.804 1420.27 349.505 1433.67 356.608C1452.94 354.698 1472.23 352.917 1491.58 351.408C1477.64 344.833 1463.74 338.585 1449.86 332.356C1431.06 333.372 1412.29 334.546 1393.59 336.024ZM1352.07 315.191C1365.26 321.53 1378.56 328.377 1391.83 335.129C1410.44 333.644 1429.11 332.451 1447.83 331.422C1433.71 325.111 1419.64 319.032 1405.6 313.103C1387.71 313.595 1369.84 314.21 1352.07 315.191ZM1309.76 295.729C1323.14 301.776 1336.52 307.808 1349.97 314.23C1367.66 313.237 1385.46 312.65 1403.28 312.146C1389.39 306.279 1375.49 300.374 1361.69 294.953M1267.11 277.043C1280.54 282.712 1294.02 288.61 1307.56 294.713C1324.66 294.228 1341.77 293.799 1359.01 293.838C1344.8 288.311 1330.71 283.327 1316.6 278.205C1300.03 277.567 1283.52 277.134 1267.11 277.043ZM1224.18 259.405C1237.53 264.606 1251.01 270.279 1264.48 275.964C1280.67 276.023 1296.93 276.389 1313.26 276.984C1299.27 271.93 1285.31 267.048 1271.42 262.463C1255.62 261.237 1239.83 260.071 1224.18 259.405ZM1181.49 243.792C1194.63 248.461 1207.73 252.999 1220.97 258.086C1236.19 258.696 1251.6 259.906 1266.98 261.048C1253.21 256.518 1239.45 252.022 1225.82 248C1210.94 246.215 1196.22 245.033 1181.49 243.792ZM1139.91 229.495C1152.25 233.447 1164.71 237.824 1177.19 242.252C1191.26 243.387 1205.28 244.36 1219.49 245.999C1206.3 242.232 1193.26 239.041 1180.18 235.669C1166.7 233.415 1153.24 231.256 1139.91 229.495ZM1101.11 217.885C1111.81 220.935 1122.57 224.177 1133.36 227.537C1144.5 228.944 1155.67 230.425 1166.91 232.178C1144.77 226.69 1122.84 221.955 1101.11 217.885ZM1413.28 387.334C1425.27 394.681 1437.3 402.336 1449.34 409.995C1470.32 407.032 1491.34 404.306 1512.38 401.635C1499.41 394.181 1486.48 386.952 1473.55 379.758C1453.41 382.074 1433.34 384.655 1413.28 387.334ZM1374.7 364.157C1387.05 371.449 1399.43 378.871 1411.84 386.467C1431.84 383.792 1451.86 381.196 1471.94 378.879C1459.04 371.701 1446.14 364.5 1433.31 357.688C1413.72 359.634 1394.18 361.781 1374.7 364.157ZM1335.15 341.263C1347.82 348.434 1360.52 355.781 1373.25 363.29C1392.68 360.915 1412.16 358.752 1431.69 356.802C1418.23 349.683 1404.84 343.005 1391.43 336.217C1372.63 337.718 1353.83 339.274 1335.15 341.263ZM1295.73 319.343C1308.3 326.127 1320.95 333.242 1333.61 340.401C1352.21 338.411 1370.94 336.831 1389.67 335.319C1376.25 328.519 1362.82 321.68 1349.48 315.293C1331.48 316.314 1313.59 317.803 1295.73 319.343ZM1255.07 298.148C1268.05 304.786 1281.01 311.401 1294.07 318.417C1311.79 316.873 1329.53 315.356 1347.39 314.328C1333.91 307.91 1320.5 301.82 1307.11 295.788C1289.69 296.288 1272.34 297.084 1255.07 298.148ZM1214.26 277.473C1227.15 283.67 1240.2 290.529 1253.2 297.198C1270.36 296.123 1287.59 295.292 1304.91 294.772C1291.22 288.63 1277.6 282.767 1264.02 277.059C1247.38 277.004 1230.73 276.941 1214.26 277.473ZM1172.72 258.543C1185.82 264.42 1198.9 270.196 1212.1 276.488C1228.42 275.936 1244.91 275.956 1261.39 275.979C1247.72 270.228 1234.03 264.405 1220.49 259.169C1204.45 258.535 1188.58 258.566 1172.72 258.543ZM1131.44 240.621C1144.28 245.943 1157.21 251.585 1170.18 257.388C1185.89 257.38 1201.6 257.361 1217.48 257.952C1203.79 252.735 1190.26 248.138 1176.7 243.367C1161.52 242.15 1146.44 241.236 1131.44 240.621ZM1089.02 223.7C1102.01 228.585 1115.12 233.932 1128.26 239.356C1142.89 239.916 1157.59 240.696 1172.4 241.831C1159.16 237.209 1145.98 232.817 1132.87 228.696C1118.21 226.852 1103.5 224.922 1089.02 223.7ZM1048.75 209.576C1060.85 213.67 1072.91 217.637 1085.13 222.148C1098.74 223.247 1112.58 225.087 1126.35 226.742C1113.37 222.68 1100.38 218.618 1087.57 215.124C1074.5 212.846 1061.65 211.322 1048.75 209.576ZM1012.91 197.604C1022.62 200.535 1032.51 204.033 1042.35 207.422C1053.48 208.852 1064.6 210.262 1075.84 212.094C1054.66 206.578 1033.65 201.678 1012.91 197.604ZM1351.18 396.261C1362.34 403.743 1373.6 411.787 1384.82 419.631C1405.73 416.357 1426.67 413.217 1447.65 410.247C1435.56 402.572 1423.48 394.945 1411.44 387.57C1391.3 390.269 1371.22 393.188 1351.18 396.261ZM1314.31 372.17C1326.16 379.884 1337.98 387.456 1349.87 395.406C1369.87 392.333 1389.91 389.406 1410 386.704C1397.6 379.112 1385.21 371.666 1372.86 364.389C1353.29 366.789 1333.76 369.322 1314.31 372.17ZM1277.42 348.292C1289.22 355.671 1301.13 363.574 1313 371.315C1332.41 368.467 1351.89 365.918 1371.41 363.515C1358.63 355.994 1345.89 348.682 1333.18 341.5C1314.52 343.505 1295.94 345.794 1277.42 348.292ZM1239.35 325.194C1251.54 332.51 1263.72 339.782 1275.99 347.425C1294.46 344.919 1313.01 342.654 1331.63 340.645C1318.93 333.475 1306.23 326.289 1293.63 319.509C1275.45 321.092 1257.37 323.047 1239.35 325.194ZM1200.7 302.344C1213.03 309.4 1225.46 316.846 1237.89 324.307C1255.84 322.152 1273.85 320.182 1291.97 318.583C1278.83 311.547 1265.79 304.96 1252.74 298.305C1235.32 299.405 1217.94 300.646 1200.7 302.344ZM1161.32 280.435C1173.85 287.227 1186.44 294.232 1199.08 301.445C1216.24 299.74 1233.54 298.471 1250.88 297.356C1237.77 290.659 1224.62 283.843 1211.62 277.618C1194.75 278.198 1178 279.218 1161.32 280.435ZM1121.73 259.646C1134.28 266.052 1146.87 272.599 1159.53 279.446C1176.08 278.217 1192.72 277.24 1209.47 276.641C1196.14 270.306 1182.91 264.405 1169.7 258.511M1081.45 239.455C1094.08 245.455 1106.88 252.078 1119.64 258.602C1135.4 257.912 1151.22 257.4 1167.17 257.357C1153.97 251.494 1140.84 245.884 1127.77 240.515C1112.26 239.928 1096.75 239.36 1081.45 239.455ZM1040.68 221.171C1053.5 226.789 1066.28 232.237 1079.23 238.336C1094.22 238.218 1109.4 238.714 1124.59 239.242C1111.29 233.77 1097.96 228.254 1084.82 223.365C1069.97 222.176 1055.33 221.687 1040.68 221.171ZM1001.02 204.286C1013.1 209.108 1025.33 214.434 1037.58 219.796C1052.07 220.261 1066.59 220.828 1081.29 221.959C1068.03 217.117 1054.96 212.953 1041.85 208.611C1028.14 206.858 1014.53 205.416 1001.02 204.286ZM959.545 188.7C971.886 193.081 984.325 197.785 996.828 202.714C1009.64 203.726 1022.49 204.888 1035.47 206.464C1023.37 202.509 1011.34 198.778 999.399 195.35C986.052 192.931 972.69 190.481 959.545 188.7ZM925.011 177.228C934.465 180.218 943.885 183.106 953.434 186.403C964.312 187.798 975.454 190.024 986.474 191.868C965.755 186.242 945.249 181.306 925.011 177.228ZM1288.79 406.461C1299.3 414.139 1309.92 422.302 1320.49 430.284C1341.35 426.683 1362.23 423.169 1383.18 419.879C1371.92 412.032 1360.64 404.026 1349.45 396.529C1329.17 399.645 1308.95 402.947 1288.79 406.461ZM1254.15 381.59C1265.3 389.52 1276.45 397.431 1287.65 405.602C1307.75 402.092 1327.92 398.786 1348.14 395.666C1336.25 387.724 1324.43 380.124 1312.59 372.434C1293.06 375.31 1273.54 378.249 1254.15 381.59ZM1219.51 357.113C1230.6 364.732 1241.79 372.804 1252.96 380.751C1272.31 377.406 1291.79 374.459 1311.29 371.583C1299.34 363.81 1287.37 355.935 1275.51 348.524C1256.74 351.077 1238.1 354.036 1219.51 357.113ZM1183.26 332.805C1194.92 340.531 1206.56 348.217 1218.29 356.254C1236.81 353.177 1255.38 350.207 1274.07 347.654C1261.81 340.023 1249.62 332.711 1237.43 325.414C1219.29 327.601 1201.22 330.035 1183.26 332.805ZM1146.42 308.549C1158.18 316.018 1170.1 324.067 1181.96 331.942C1199.87 329.169 1217.89 326.718 1235.98 324.528C1223.48 317.05 1211.01 309.652 1198.61 302.58C1181.14 304.325 1163.69 306.169 1146.42 308.549ZM1108.91 285.553C1120.93 292.845 1132.92 299.972 1145.03 307.635C1162.22 305.251 1179.6 303.435 1196.99 301.682C1184.29 294.449 1171.63 287.361 1159.04 280.561C1142.2 281.822 1125.53 283.622 1108.91 285.553ZM1071.14 262.793C1083.11 269.668 1095.27 277.264 1107.36 284.619C1123.91 282.677 1140.5 280.845 1157.26 279.572C1144.49 272.698 1131.81 266.197 1119.16 259.76C1103.05 260.473 1087.01 261.387 1071.14 262.793ZM1031.54 241.086C1044.11 247.874 1056.67 254.575 1069.37 261.824C1085.15 260.406 1101.08 259.449 1117.07 258.716C1104.3 252.204 1091.47 245.51 1078.84 239.538C1062.96 239.675 1047.18 240.2 1031.54 241.086ZM993.063 220.84C1005.13 226.915 1017.31 233.396 1029.51 239.979C1045.06 239.069 1060.76 238.592 1076.55 238.423C1063.28 232.218 1050.2 226.686 1037.08 220.99C1022.27 220.529 1007.64 220.588 993.063 220.84ZM952.712 201.268C965.246 207.067 977.903 213.276 990.61 219.65C1004.98 219.367 1019.38 219.205 1033.98 219.619C1021.36 214.154 1008.79 208.867 996.331 203.959C981.715 202.816 967.084 201.646 952.712 201.268ZM913.47 184.142C925.614 189.244 937.75 194.342 950.051 199.979C963.93 200.303 978.045 201.351 992.152 202.391C979.105 197.273 966.07 192.214 953.217 187.747C939.804 186.029 926.659 185.162 913.47 184.142ZM876.121 168.699C887.05 172.812 898.224 177.709 909.342 182.424C922.306 183.366 935.289 184.343 948.47 185.958C936.086 181.778 923.919 178.296 911.696 174.636C899.761 172.426 887.862 170.318 876.121 168.699ZM838.755 156.029C849.069 159.421 859.396 162.84 869.816 166.563C879.476 167.816 889.148 169.104 898.941 170.759C878.593 164.944 858.536 160.067 838.755 156.029ZM1226.52 417.933C1236.41 425.793 1246.35 433.869 1256.28 441.938C1277.11 437.99 1297.98 434.168 1318.92 430.548C1308.35 422.582 1297.74 414.391 1287.24 406.737C1266.94 410.286 1246.69 413.974 1226.52 417.933ZM1194.56 392.759C1204.83 400.693 1215.15 408.876 1225.47 417.082C1245.6 413.119 1265.83 409.427 1286.1 405.878C1274.87 397.711 1263.7 389.832 1252.52 381.897C1233.12 385.258 1213.81 388.918 1194.56 392.759ZM1161.58 367.675C1172.18 375.641 1182.79 383.686 1193.45 391.912C1212.67 388.067 1231.96 384.418 1251.34 381.058C1240.16 373.112 1228.94 364.988 1217.84 357.381C1198.99 360.513 1180.25 363.98 1161.58 367.675ZM1127.48 342.268C1138.42 350.222 1149.45 358.543 1160.48 366.832C1179.1 363.136 1197.81 359.658 1216.62 356.518C1204.86 348.473 1193.18 340.826 1181.49 333.089C1163.4 335.902 1145.36 338.845 1127.48 342.268ZM1092.43 317.362C1103.68 325.253 1114.96 333.203 1126.3 341.429C1144.14 338.001 1162.15 335.047 1180.19 332.23C1168.29 324.347 1156.34 316.227 1144.55 308.761C1127.04 311.2 1109.72 314.253 1092.43 317.362ZM1056.87 292.79C1068.24 300.437 1079.71 308.438 1091.19 316.483C1108.44 313.367 1125.72 310.314 1143.19 307.867C1131 300.185 1118.96 293.085 1106.87 285.781C1090.09 287.755 1073.42 290.103 1056.87 292.79ZM1019.56 268.329C1031.48 275.972 1043.47 283.819 1055.51 291.9C1072 289.205 1088.6 286.833 1105.33 284.844C1093.15 277.473 1080.93 269.928 1068.88 263.034C1052.35 264.531 1035.83 266.052 1019.56 268.329ZM982.835 245.4C994.545 252.523 1006.31 259.827 1018.14 267.399C1034.3 265.118 1050.71 263.577 1067.12 262.065C1054.33 254.788 1041.66 247.965 1029.01 241.169C1013.46 242.094 998.133 243.71 982.835 245.4ZM945.02 222.873C956.951 229.696 969.035 237.036 981.12 244.379C996.323 242.678 1011.54 241.011 1026.99 240.065C1014.64 233.443 1002.34 227.013 990.121 220.903C974.973 221.214 959.9 221.758 945.02 222.873ZM906.007 201.607C918.355 208.174 930.684 214.674 943.195 221.782C957.874 220.651 972.734 220.056 987.673 219.709C974.958 213.355 962.258 207.043 949.72 201.287C935.002 200.957 920.445 201.11 906.007 201.607ZM868.764 182.074C880.233 187.7 891.947 194.109 903.598 200.33C917.941 199.798 932.443 199.708 947.063 199.995C934.201 194.161 921.541 188.98 908.853 183.721C895.349 182.759 882.011 182.286 868.764 182.074ZM827.538 163.238C840.182 168.813 852.862 174.474 865.708 180.679C878.62 180.833 891.58 181.136 904.733 182.007C892.87 177.09 881.021 172.229 869.347 167.934C855.335 166.134 841.259 164.164 827.538 163.238ZM791.446 148.138C802.261 152.396 813.151 156.884 824.14 161.682C836.926 162.486 850.028 164.235 863.066 165.803C850.473 161.276 837.931 156.915 825.555 153.07C814.022 150.935 802.774 149.65 791.446 148.138ZM754.664 134.313C764.711 137.741 774.954 141.779 785.189 145.79C795.606 147.082 805.964 148.189 816.558 150.017C795.567 143.682 774.942 138.478 754.664 134.313ZM1164.48 430.729C1173.72 438.699 1182.94 446.578 1192.2 454.639C1212.99 450.333 1233.85 446.192 1254.76 442.221C1244.84 434.172 1234.91 426.065 1225.04 418.237C1204.79 422.227 1184.57 426.309 1164.48 430.729ZM1135.28 405.547C1144.61 413.367 1154.08 421.751 1163.5 429.882C1183.56 425.462 1203.76 421.38 1223.99 417.386C1213.62 409.171 1203.27 401.008 1192.97 393.058C1173.64 396.931 1154.43 401.17 1135.28 405.547ZM1103.96 380.022C1114.07 388.287 1124.1 396.234 1134.25 404.708C1153.38 400.335 1172.55 396.084 1191.86 392.207C1181.21 384.001 1170.6 375.921 1160.01 367.982C1141.23 371.717 1122.54 375.704 1103.96 380.022ZM1071.89 353.886C1082.17 362.041 1092.59 370.708 1102.95 379.195C1121.49 374.873 1140.15 370.882 1158.91 367.143C1147.85 358.85 1136.8 350.573 1125.83 342.615C1107.76 346.094 1089.74 349.757 1071.89 353.886ZM1038.81 328.326C1049.48 336.528 1060.1 344.529 1070.85 353.031C1088.65 348.902 1106.63 345.258 1124.66 341.776C1113.29 333.546 1101.98 325.529 1090.7 317.649C1073.27 320.809 1056 324.461 1038.81 328.326ZM1004.8 302.363C1015.68 310.424 1026.7 319.016 1037.69 327.471C1054.84 323.602 1072.07 319.934 1089.46 316.767C1077.93 308.714 1066.44 300.768 1055.01 293.101C1038.16 295.867 1021.38 298.841 1004.8 302.363ZM969.473 277.008C980.844 285.096 992.172 293.011 1003.65 301.485C1020.17 297.963 1036.87 294.976 1053.65 292.211C1041.63 284.154 1029.64 276.255 1017.73 268.648C1001.48 270.952 985.449 273.903 969.473 277.008ZM934.339 252.18C945.497 259.756 956.86 268.029 968.156 276.078C984.093 272.958 1000.1 270.038 1016.32 267.718C1004.35 260.087 992.471 252.802 980.631 245.624C965.053 247.385 949.629 249.596 934.339 252.18ZM896.54 227.612C908.656 235.397 920.693 242.922 932.955 251.199C948.143 248.615 963.449 246.377 978.912 244.604C966.839 237.28 954.735 229.87 942.816 223.086C927.29 224.291 911.755 225.497 896.54 227.612ZM860.736 204.877C872.02 211.704 883.517 219.229 894.967 226.596C910.099 224.464 925.547 223.224 940.991 221.994C928.24 214.789 915.698 208.273 903.113 201.626C888.805 202.178 874.756 203.49 860.736 204.877ZM822.188 182.684C834.312 189.496 846.452 196.347 858.753 203.734C872.639 202.328 886.541 200.937 900.712 200.354C888.832 194.07 876.937 187.735 865.243 182.054C850.765 181.896 836.342 181.908 822.188 182.684ZM784.519 162.332C796.264 168.399 808.108 174.77 820.047 181.455C833.914 180.655 848.017 180.561 862.191 180.659C849.318 174.47 836.567 168.671 823.907 163.152C810.588 162.324 797.546 162.309 784.519 162.332ZM747.153 143.674C758.457 148.953 769.97 154.878 781.487 160.819C794.388 160.737 807.359 160.859 820.544 161.611C808.491 156.431 796.607 151.79 784.755 147.235C772.095 145.679 759.534 144.411 747.153 143.674ZM708.14 126.911C719.972 131.768 731.753 136.476 743.798 141.996C755.26 142.618 766.824 143.56 778.526 144.887C767.802 140.731 757.046 136.472 746.554 133.021C733.594 130.531 720.788 128.498 708.14 126.911ZM677.647 114.524C685.607 117.412 693.777 120.918 701.911 124.334C712.41 125.544 723.193 127.569 733.91 129.408C714.87 123.601 696.056 118.472 677.647 114.524ZM1102.83 445.058C1111.32 452.898 1119.76 460.481 1128.28 468.436C1149.02 463.751 1169.85 459.28 1190.74 454.946C1181.49 446.905 1172.27 438.995 1163.05 431.06C1142.89 435.504 1122.81 440.169 1102.83 445.058ZM1075.67 420.116C1084.38 427.979 1093.15 436.123 1101.9 444.207C1121.87 439.318 1141.93 434.661 1162.07 430.217C1152.63 422.078 1143.13 413.726 1133.76 405.886C1114.29 410.345 1094.94 415.12 1075.67 420.116ZM1046.67 394.252C1056.01 402.502 1065.36 410.787 1074.76 419.273C1093.99 414.281 1113.3 409.502 1132.73 405.043C1122.59 396.592 1112.57 388.618 1102.48 380.376C1083.78 384.745 1065.14 389.28 1046.67 394.252ZM1016.58 368.073C1026.26 376.425 1035.97 384.832 1045.73 393.432C1064.17 388.457 1082.78 383.914 1101.46 379.549C1091.09 371.063 1080.66 362.349 1070.37 354.201C1052.29 358.409 1034.41 363.18 1016.58 368.073ZM985.595 341.559C995.539 349.883 1005.58 358.586 1015.61 367.234C1033.42 362.341 1051.27 357.558 1069.32 353.35C1058.54 344.845 1047.91 336.894 1037.21 328.68C1019.87 332.604 1002.66 336.898 985.595 341.559ZM952.539 314.557C963.192 323.2 973.83 331.753 984.574 340.728C1001.61 336.063 1018.78 331.757 1036.09 327.829C1025.11 319.398 1014.09 310.767 1003.22 302.734C986.222 306.37 969.24 310.089 952.539 314.557ZM919.929 288.287C930.361 296.45 940.939 305.137 951.482 313.698C968.156 309.23 985.102 305.503 1002.07 301.855C990.512 293.342 979.117 285.45 967.663 277.323C951.581 280.482 935.715 284.284 919.929 288.287ZM885.118 261.879C896.296 270.275 907.45 278.58 918.746 287.389C934.489 283.382 950.303 279.561 966.346 276.389C955.066 268.364 943.695 260.04 932.553 252.495C916.601 255.225 900.743 258.223 885.118 261.879ZM850.233 236.043C861.355 244.017 872.62 252.479 883.888 260.942C899.454 257.282 915.245 254.264 931.134 251.522C918.832 243.245 906.756 235.748 894.6 227.967C879.614 230.094 864.896 233.006 850.233 236.043ZM814.334 211.125C825.744 218.882 837.198 226.761 848.762 235.027C863.386 231.974 878.08 229.101 893.023 226.958C881.392 219.508 869.749 212.011 858.284 205.109C843.463 206.626 828.812 208.627 814.334 211.125ZM777.158 186.612C788.943 194.137 800.81 201.93 812.781 210.045C827.12 207.544 841.622 205.507 856.297 203.962C844.007 196.607 831.84 189.662 819.731 182.897C805.407 183.74 791.139 184.772 777.158 186.612ZM741.212 164.227C752.413 170.889 763.796 178.118 775.186 185.383C789.104 183.516 803.338 182.547 817.599 181.668C805.301 174.837 793.142 168.446 781.045 162.261M702.261 142.374C714.468 149.012 726.651 155.572 739.079 162.899C751.936 161.836 764.845 160.91 778.017 160.748C766.485 154.831 754.905 148.764 743.597 143.548C729.699 142.803 715.789 142.039 702.261 142.374ZM667.061 123.649C677.761 128.924 688.722 134.995 699.651 140.956C712.907 140.57 726.513 141.216 740.127 141.866C727.069 135.964 714.307 130.969 701.504 125.855C689.818 124.531 678.467 124.173 667.061 123.649ZM627.98 105.92C639.536 110.896 651.171 116.108 662.96 121.789C673.838 122.207 684.61 122.317 695.748 123.471C685.26 119.358 674.899 115.62 664.616 112.125C652.307 109.781 639.962 107.327 627.98 105.92ZM596.769 93.3645C605.585 96.6777 614.417 100.054 623.387 103.836C632.802 104.86 642.434 106.511 652.047 108.119C633.271 102.178 614.823 97.2017 596.769 93.3645ZM1041.52 460.954C1049.14 468.459 1056.71 475.759 1064.36 483.418C1085.1 478.328 1105.96 473.49 1126.86 468.763C1118.34 460.828 1109.9 453.217 1101.41 445.389C1081.34 450.309 1061.41 455.569 1041.52 460.954ZM1016.38 436.434C1024.47 444.305 1032.54 452.118 1040.66 460.107C1060.52 454.722 1080.43 449.458 1100.49 444.534C1091.75 436.469 1082.98 428.306 1074.3 420.47C1054.88 425.517 1035.57 430.828 1016.38 436.434ZM989.743 410.491C998.267 418.591 1006.93 427.219 1015.53 435.603C1034.7 429.996 1053.99 424.682 1073.38 419.631C1063.96 411.145 1054.61 402.911 1045.25 394.658C1026.65 399.685 1008.09 404.826 989.743 410.491ZM961.666 384.505C970.743 392.952 979.72 401.024 988.848 409.664C1007.18 403.999 1025.73 398.869 1044.31 393.838C1034.55 385.242 1024.82 376.783 1015.13 368.447C997.159 373.399 979.365 378.832 961.666 384.505ZM932.344 357.361C941.76 365.902 951.281 374.837 960.775 383.678C978.451 378.005 996.221 372.564 1014.17 367.608C1004.11 358.956 994.06 350.313 984.089 341.981C966.709 346.755 949.428 351.794 932.344 357.361ZM901.583 329.984C911.515 338.75 921.427 347.453 931.445 356.526C948.486 350.963 965.731 345.92 983.072 341.145C972.343 332.194 961.702 323.598 951.064 314.99C934.383 319.477 917.949 324.65 901.583 329.984ZM870.077 302.537C880.19 311.192 890.386 320.115 900.597 329.129C916.94 323.791 933.362 318.634 950.02 314.139C939.406 305.543 928.776 296.895 918.273 288.693C902.036 292.841 885.974 297.47 870.077 302.537ZM836.674 274.51C847.414 283.378 858.193 292.365 869.055 301.65C884.901 296.588 900.905 291.951 917.086 287.802C905.806 279.025 894.648 270.665 883.49 262.305C867.762 266.02 852.05 269.818 836.674 274.51ZM803.566 247.645C814.149 256.045 824.826 264.751 835.542 273.588C850.883 268.892 866.567 265.094 882.264 261.367C870.889 252.85 859.538 244.419 848.305 236.39C833.18 239.565 818.324 243.473 803.566 247.645ZM768.5 220.552C779.721 229.054 790.973 237.651 802.344 246.657C817.027 242.488 831.796 238.557 846.834 235.377C835.286 227.143 823.82 219.197 812.43 211.479C797.636 214.076 782.918 216.9 768.5 220.552ZM733.614 194.562C744.666 202.509 755.902 211.026 767.131 219.532C781.491 215.868 796.146 213.016 810.88 210.4C798.729 202.198 786.711 194.421 774.745 186.821C760.792 188.716 747.201 191.643 733.614 194.562ZM697.195 169.483C708.767 177.299 720.307 185.001 732.069 193.408C745.525 190.489 758.962 187.51 772.777 185.596C761.395 178.363 749.984 171.035 738.799 164.424C724.751 165.606 710.845 167.182 697.195 169.483ZM661.241 145.49C672.446 152.53 683.963 160.528 695.393 168.273C708.94 165.953 722.732 164.314 736.67 163.096C724.092 155.733 711.791 149.237 699.446 142.587C686.51 142.981 673.818 144.08 661.241 145.49ZM623.962 123.566C635.523 130.212 647.063 136.776 658.84 144.08C671.338 142.626 683.991 141.617 696.84 141.172C685.335 134.979 673.858 128.884 662.589 123.42M586.538 103.08C598.011 109.001 609.615 115.32 621.348 122.026C633.555 121.375 645.927 121.19 658.497 121.557C646.669 115.895 634.919 110.471 623.359 105.601C610.908 104.266 598.614 103.367 586.538 103.08ZM551.767 85.8792C561.829 90.461 572.131 95.748 582.437 101.051C594.325 101.236 606.527 102.311 618.774 103.525C606.934 98.683 595.377 94.6882 583.802 90.6422C572.979 88.637 562.306 87.061 551.767 85.8792ZM516.901 71.6334C526.955 75.5258 536.903 79.1108 547.166 83.606C555.181 84.4254 563.086 84.9139 571.271 86.218C552.725 80.1312 534.608 75.3012 516.901 71.6334ZM980.469 478.387C987.117 485.368 993.788 492.46 1000.49 499.65C1021.23 494.126 1042.12 488.894 1063.05 483.749C1055.37 476.086 1047.8 468.834 1040.15 461.313C1020.15 466.746 1000.27 472.478 980.469 478.387ZM957.42 454.6C964.84 462.298 972.201 469.74 979.649 477.544C999.434 471.635 1019.29 465.895 1039.28 460.466C1031.18 452.5 1023.12 444.668 1015.05 436.828C995.732 442.485 976.499 448.359 957.42 454.6ZM933.007 429.398C940.841 437.391 948.734 445.594 956.62 453.768C975.679 447.528 994.896 441.654 1014.2 435.993C1005.58 427.605 996.911 419.032 988.363 410.917C969.749 416.684 951.34 422.96 933.007 429.398ZM907.201 403.309C915.505 411.61 923.84 420.049 932.202 428.574C950.512 422.137 968.901 415.877 987.488 410.113C978.364 401.481 969.375 393.373 960.298 384.939C942.446 390.675 924.754 396.813 907.201 403.309ZM879.287 375.897C888.308 384.742 897.289 393.428 906.373 402.49C923.907 395.997 941.578 389.851 959.407 384.107C949.929 375.29 940.411 366.332 931.016 357.822C913.64 363.507 896.327 369.365 879.287 375.897ZM851.1 348.225C860.125 356.853 869.331 366.123 878.447 375.074C895.472 368.542 912.765 362.676 930.117 356.987C920.051 347.886 910.103 339.227 900.12 330.429C883.584 335.85 867.293 341.914 851.1 348.225ZM820.591 319.887C830.483 329.094 840.25 337.86 850.229 347.37C866.386 341.066 882.638 334.992 899.135 329.575C888.939 320.588 878.743 311.625 868.649 303.002C852.464 308.186 836.405 313.721 820.591 319.887ZM789.526 291.112C799.47 300.09 809.591 309.64 819.649 319.016C835.439 312.847 851.471 307.304 867.628 302.115C856.73 292.821 845.939 283.902 835.156 275.018C819.724 279.766 804.591 285.356 789.526 291.112ZM757.125 262.679C767.577 271.796 777.958 280.672 788.529 290.186C803.551 284.43 818.651 278.867 834.048 274.116C823.312 265.271 812.583 256.478 801.977 248.083C786.825 252.405 771.875 257.27 757.125 262.679ZM723.588 233.668C734.276 242.626 745.178 252.259 756.025 261.73C770.735 256.317 785.646 251.431 800.759 247.098C789.337 238.08 778.068 229.562 766.8 221.049C752.224 224.788 737.75 228.81 723.588 233.668ZM689.605 206.196C700.507 214.931 711.326 223.393 722.377 232.616C736.484 227.762 750.919 223.775 765.432 220.024C754.156 211.499 742.844 202.863 731.745 194.917C717.465 198.037 703.46 201.91 689.605 206.196ZM654.475 178.209C665.554 186.624 676.953 196.04 688.241 205.105C702.037 200.807 715.982 196.899 730.2 193.763C718.364 185.336 706.776 177.716 695.129 169.884C681.432 172.26 667.747 174.675 654.475 178.209ZM618.955 152.617C630.239 160.674 641.437 168.439 652.914 177.086C666.114 173.537 679.713 171.078 693.331 168.683C681.641 160.815 669.919 152.853 658.461 145.703C645.036 147.291 631.95 149.824 618.955 152.617ZM582.445 127.238C593.864 134.81 605.487 142.992 617.153 151.313C629.959 148.52 642.836 145.912 656.064 144.289C644.299 137.024 632.723 130.334 621.183 123.755C608.113 124.48 595.082 125.307 582.445 127.238ZM546.625 104.506C557.72 111.247 568.961 118.401 580.3 125.878C592.791 123.917 605.656 122.999 618.573 122.222C606.255 115.261 594.131 108.887 582.098 102.772C570.014 102.615 558.323 103.576 546.625 104.506ZM508.874 83.019C520.477 89.3145 532.112 95.6968 544.004 102.843C555.244 101.886 566.406 100.692 578.01 100.751C567.664 95.4565 557.251 89.9803 547.177 85.4852C534.237 84.1812 521.348 83.0229 508.874 83.019ZM475.794 65.4442C485.501 70.0969 495.559 75.77 505.542 81.2304C517.24 81.1398 529.293 82.0459 541.405 83.1096C528.737 77.7004 516.306 72.9886 503.977 68.5604C494.349 66.8703 485.15 66.3857 475.794 65.4442ZM437.88 49.3113C448.317 53.4518 458.872 57.9233 469.564 62.7888C478.424 63.5452 487.232 64.148 496.328 65.586C476.307 58.6246 456.766 53.05 437.88 49.3113ZM919.53 497.499C925.314 503.975 931.161 510.685 936.993 517.335C957.637 511.382 978.356 505.567 999.205 500.008C992.491 492.822 985.808 485.778 979.141 478.781C959.155 484.762 939.287 491.014 919.53 497.499ZM898.827 474.715C905.486 482.059 912.09 489.174 918.785 496.648C938.519 490.167 958.358 483.915 978.328 477.934C970.9 470.157 963.547 462.707 956.143 455.033C936.922 461.336 917.776 467.801 898.827 474.715ZM876.681 450.589C883.809 458.358 890.91 466.013 898.066 473.892C916.999 466.982 936.133 460.513 955.334 454.21C947.453 446.039 939.552 437.809 931.717 429.831C913.206 436.347 894.896 443.356 876.681 450.589ZM852.961 424.741C860.563 432.876 868.267 441.41 875.927 449.762C894.131 442.532 912.425 435.516 930.925 428.996C922.547 420.47 914.212 412.103 905.896 403.794C888.095 410.401 870.431 417.338 852.961 424.741ZM827.191 397.597C835.526 406.358 843.81 414.947 852.204 423.918C869.651 416.519 887.291 409.581 905.06 402.978C895.996 393.941 887.022 385.234 878.021 376.421C860.894 383.016 843.964 390.123 827.191 397.597ZM800.424 369.798C809.051 378.694 817.697 387.637 826.391 396.765C843.151 389.292 860.07 382.189 877.181 375.598C868.05 366.643 858.82 357.357 849.779 348.721C833.129 355.241 816.692 362.309 800.424 369.798ZM771.851 340.452C781.026 349.69 790.338 359.39 799.612 368.955C815.852 361.47 832.254 354.402 848.872 347.886C838.909 338.407 829.139 329.63 819.258 320.442C803.298 326.699 787.409 333.164 771.851 340.452ZM742.292 311.417C751.849 320.801 761.332 329.909 770.976 339.593C786.518 332.305 802.38 325.832 818.32 319.572C808.246 310.195 798.098 300.575 788.142 291.604C772.616 297.573 757.393 304.341 742.292 311.417ZM711.57 281.243C721.376 290.58 731.43 300.74 741.365 310.511C756.443 303.431 771.638 296.651 787.137 290.678C776.539 281.16 766.154 272.363 755.67 263.239C740.782 268.734 726.028 274.593 711.57 281.243ZM679.232 251.487C689.68 261.107 699.99 270.279 710.565 280.305C724.987 273.655 739.71 267.789 754.566 262.281C743.692 252.802 732.739 243.075 722.03 234.121C707.482 239.152 693.327 245.242 679.232 251.487ZM646.692 221.565C657.018 230.713 667.64 240.79 678.132 250.474C692.192 244.226 706.307 238.115 720.816 233.073C709.717 223.838 698.882 215.455 687.937 206.712C673.976 211.085 660.2 215.963 646.692 221.565ZM612.055 192.124C623.174 201.532 634.178 210.577 645.47 220.525C658.934 214.915 672.659 210.014 686.577 205.625C675.234 196.548 663.812 187.231 652.673 178.804C638.874 182.543 625.37 187.081 612.055 192.124ZM577.994 163.664C588.742 172.299 599.73 181.68 610.683 190.958C623.927 185.911 637.387 181.432 651.108 177.677C639.568 169.002 628.264 161.087 616.921 153.027C603.712 155.934 590.733 159.472 577.994 163.664ZM541.799 135.736C553.253 144.379 564.742 153.105 576.429 162.454C589.097 158.247 601.985 154.658 615.119 151.727C603.35 143.382 591.667 135.306 580.147 127.718C567.143 129.791 554.314 132.336 541.799 135.736ZM506.52 110.049C517.559 117.794 528.702 125.851 539.982 134.333C552.378 130.917 565.133 128.467 578.01 126.359C566.528 118.815 555.094 111.432 543.877 104.679C531.174 105.786 518.73 107.606 506.52 110.049ZM470.128 85.2055C481.333 92.3914 492.858 100.503 504.367 108.579C516.436 106.105 528.71 104.183 541.255 103.017C529.139 95.8149 517.335 89.5352 505.518 83.2081C493.524 83.3223 481.669 83.8384 470.128 85.2055ZM433.961 63.7264C445.068 70.0969 456.092 76.2152 467.483 83.4011C478.779 81.9907 490.457 81.6204 502.191 81.4195C491.104 75.506 480.072 69.766 469.296 64.7587C457.287 63.7698 445.51 63.4231 433.961 63.7264ZM398.307 44.363C408.89 49.6382 419.7 55.5596 430.61 61.7764C441.259 61.4021 452.039 61.3784 463.09 62.1152C452.279 57.2103 441.512 52.4315 431.028 48.4524C419.902 46.4708 409.027 45.2061 398.307 44.363ZM365.929 29.3215C374.481 32.9223 383.262 37.1693 392.054 41.4556C402.309 42.0781 412.915 43.6815 423.553 45.3716C403.701 38.2014 384.567 33.0799 365.929 29.3215ZM156.002 830.352C164.948 825.29 173.795 820.397 182.529 815.697C220.769 391.502 351.503 187.31 537.979 134.755C526.592 126.245 515.395 118.307 504.257 110.537C310.751 150.698 179.927 362.36 156.002 830.352ZM128.612 846.174C137.463 840.962 146.24 835.884 154.918 830.963C178.598 362.561 309.016 150.099 502.104 109.068C490.457 100.925 478.727 92.553 467.4 85.3591C266.572 110.947 136.469 331.016 128.612 846.174ZM1822.07 393.413C1843.69 391.301 1865.27 389.327 1886.84 387.393C1870.57 382.193 1854.31 377.185 1838.03 372.237C1817.4 373.514 1796.74 374.983 1776.08 376.496C1791.41 381.972 1806.74 387.669 1822.07 393.413ZM1754.8 400.276C1776.45 397.971 1798.08 395.777 1819.7 393.657C1804.25 387.881 1788.8 382.197 1773.35 376.689C1752.6 378.217 1731.84 379.919 1711.08 381.696C1725.64 387.669 1740.22 394.012 1754.8 400.276ZM1687.68 407.765C1709.33 405.263 1730.97 402.809 1752.6 400.5C1737.95 394.216 1723.29 387.897 1708.65 381.901C1687.75 383.701 1666.85 385.648 1645.95 387.708C1659.84 394.157 1673.77 401.012 1687.68 407.765ZM1620.6 415.857C1642.29 413.147 1663.97 410.503 1685.65 407.993C1671.72 401.249 1657.79 394.358 1643.89 387.909C1622.82 389.993 1601.76 392.199 1580.72 394.559C1593.99 401.45 1607.3 408.651 1620.6 415.857ZM1553.58 424.564C1575.28 421.64 1596.99 418.808 1618.71 416.089C1605.4 408.892 1592.09 401.662 1578.82 394.78C1557.74 397.151 1536.68 399.614 1515.64 402.265C1528.26 409.546 1540.91 416.988 1553.58 424.564ZM1486.61 433.916C1508.32 430.773 1530.04 427.739 1551.79 424.808C1539.13 417.236 1526.47 409.766 1513.86 402.502C1492.78 405.169 1471.71 407.895 1450.69 410.858C1462.65 418.465 1474.61 426.037 1486.61 433.916ZM1419.71 443.927C1441.42 440.551 1463.15 437.32 1484.9 434.165C1472.91 426.301 1460.95 418.697 1449 411.106C1427.99 414.072 1407.02 417.232 1386.08 420.502C1397.29 428.326 1408.46 435.89 1419.71 443.927ZM1352.81 454.643C1374.53 451.026 1396.3 447.579 1418.07 444.187C1406.82 436.154 1395.65 428.558 1384.44 420.75C1363.46 424.04 1342.54 427.554 1321.65 431.151C1332.04 438.979 1342.38 446.571 1352.81 454.643ZM1285.9 466.166C1307.67 462.29 1329.47 458.543 1351.31 454.903C1340.85 446.819 1330.49 439.259 1320.07 431.419C1299.11 435.039 1278.21 438.861 1257.35 442.804C1266.86 450.522 1276.35 458.208 1285.9 466.166ZM1219.18 478.501C1240.89 474.373 1262.63 470.307 1284.44 466.419C1274.87 458.453 1265.36 450.814 1255.84 443.092C1234.9 447.063 1214.02 451.2 1193.2 455.506C1201.83 463.026 1210.5 470.752 1219.18 478.501ZM1152.56 491.624C1174.24 487.224 1195.96 482.918 1217.75 478.765C1209.05 471.008 1200.38 463.338 1191.74 455.809C1170.83 460.143 1149.98 464.614 1129.21 469.298C1136.95 476.54 1144.79 484.21 1152.56 491.624ZM1086.07 505.571C1107.71 500.891 1129.4 496.324 1151.17 491.904C1143.38 484.478 1135.55 476.87 1127.79 469.625C1106.87 474.353 1085.98 479.195 1065.21 484.285C1072.13 491.223 1079.13 498.527 1086.07 505.571ZM1019.72 520.38C1041.31 515.408 1062.98 510.574 1084.72 505.866C1077.79 498.846 1070.79 491.526 1063.9 484.62C1042.96 489.765 1022.05 494.993 1001.29 500.516C1007.43 507.103 1013.58 513.773 1019.72 520.38ZM953.501 536.083C975.044 530.804 996.678 525.687 1018.38 520.683C1012.26 514.104 1006.12 507.419 1000.01 500.871C979.149 506.43 958.418 512.253 937.766 518.205C943.017 524.198 948.249 530.107 953.501 536.083ZM602.636 637.802C715.466 599.335 832.506 565.769 952.196 536.407C946.956 530.45 941.732 524.544 936.488 518.56C821.376 551.799 709.638 591.345 602.636 637.802ZM564.261 651.279C572.151 648.49 580.068 645.728 587.973 642.951C699.155 593.827 815.627 552.374 935.719 517.685C929.9 511.043 924.068 504.342 918.3 497.896C794.734 538.546 675.967 589.084 564.261 651.279ZM532.715 662.452C541.109 659.391 549.598 656.432 558.071 653.454C671.346 589.844 791.994 538.368 917.555 497.049C910.852 489.584 904.26 482.536 897.589 475.188C768.468 522.401 645.876 584.009 532.715 662.452ZM501.323 674.251C510.376 670.847 519.397 667.404 528.489 664.04C642.608 584.423 766.406 522.082 896.832 474.365C889.68 466.497 882.579 458.823 875.45 451.062C740.963 504.582 614.902 577.588 501.323 674.251ZM471.37 685.507C480.281 682.056 489.322 678.742 498.315 675.378C612.481 577.734 739.331 504.137 874.693 450.238C867.052 441.906 859.352 433.365 851.77 425.261C712.552 484.442 584.003 569.185 471.37 685.507ZM441.22 697.523C450.49 693.823 459.676 690.037 469.001 686.397C582.019 569.185 711.144 483.938 851.013 424.438C842.588 415.443 834.288 406.91 825.922 398.121C682.153 462.4 551.759 559.58 441.22 697.523ZM411.705 709.397C420.804 705.654 429.995 702.01 439.174 698.35C549.981 559.532 680.825 461.868 825.125 397.297C816.447 388.193 807.809 379.23 799.202 370.37C651.018 438.861 519.034 548.048 411.705 709.397ZM382.307 721.697C391.49 717.808 400.677 713.924 409.93 710.11C517.437 547.918 649.779 438.285 798.385 369.523C789.096 359.957 779.792 350.337 770.597 341.094C618.08 412.855 485.26 534.973 382.307 721.697ZM353.316 734.177C362.44 730.198 371.599 726.251 380.797 722.347C483.849 534.843 616.893 412.26 769.73 340.235C760.074 330.555 750.564 321.376 741.003 312.008C584.196 385.884 450.722 520.199 353.316 734.177ZM324.605 746.772C333.658 742.707 342.813 738.743 351.948 734.764C449.397 520.025 583.029 385.238 740.072 311.098C730.117 301.327 720.063 291.242 710.238 281.905C548.999 356.522 415.344 503.451 324.605 746.772ZM295.985 759.966C305.081 755.759 314.137 751.508 323.304 747.371C414.035 503.274 547.796 355.868 709.224 280.971C698.634 270.941 688.272 261.679 677.812 252.066C512.174 326.037 378.751 485.282 295.985 759.966ZM267.668 773.022C276.595 768.768 285.722 764.702 294.747 760.538C377.466 485.077 510.936 325.324 676.716 251.057C666.185 241.366 655.56 231.386 645.194 222.231C474.647 293.645 341.374 464.567 267.668 773.022ZM239.422 786.953C248.455 782.513 257.37 777.959 266.478 773.59C340.089 464.382 473.353 292.944 643.968 221.187C632.644 211.227 621.569 202.06 610.423 192.656C435.042 259.902 302.629 442.662 239.422 786.953ZM211.445 800.769C220.304 796.278 229.305 791.921 238.263 787.524C301.343 442.493 433.67 259.137 609.055 191.497C598.043 182.208 587.035 172.934 576.228 164.282C395.157 224.843 263.008 417.772 211.445 800.769ZM203.224 804.827C205.562 803.634 207.956 802.499 210.313 801.325C261.707 417.669 393.694 224.13 574.658 163.069C562.905 153.696 551.305 144.797 539.797 136.153C353.096 188.07 222.082 391.494 183.633 815.098C190.229 811.56 196.762 808.133 203.224 804.827ZM266.198 774.898C257.114 779.255 248.223 783.793 239.214 788.226C235.977 805.93 233.13 824.549 230.287 843.18C238.626 837.322 246.898 831.384 255.328 825.636C258.844 808.479 262.322 791.228 266.198 774.898ZM294.388 761.857C285.391 766.006 276.291 770.06 267.392 774.303C263.529 790.522 260.086 807.715 256.581 824.754C264.869 819.14 273.322 813.723 281.724 808.247C285.872 792.614 289.925 776.773 294.388 761.857ZM322.839 748.742C313.708 752.863 304.683 757.094 295.622 761.29C291.175 776.099 287.157 791.885 283.025 807.412C291.471 801.896 299.928 796.396 308.464 790.995C313.207 776.797 317.812 762.303 322.839 748.742ZM351.369 736.159C342.269 740.13 333.161 744.09 324.144 748.143C319.145 761.589 314.587 776.017 309.871 790.093C318.348 784.747 326.884 779.483 335.46 774.263C340.735 761.503 345.841 748.372 351.369 736.159ZM380.052 723.812C370.905 727.693 361.801 731.617 352.733 735.572C347.241 747.675 342.186 760.739 336.938 773.381C345.443 768.208 354.034 763.15 362.633 758.099C368.429 746.642 374.036 734.792 380.052 723.812ZM408.925 711.646C399.746 715.436 390.646 719.309 381.531 723.17C375.565 734.024 370.026 745.784 364.285 757.114C372.94 752.036 381.562 746.914 390.303 741.942C396.494 731.817 402.522 721.338 408.925 711.646ZM437.707 700.072C428.647 703.688 419.558 707.285 410.573 710.985C404.225 720.566 398.244 730.923 392.105 740.954C400.586 736.151 409.209 731.542 417.792 726.873C424.412 717.899 430.89 708.644 437.707 700.072ZM467.132 688.237C457.941 691.838 448.896 695.592 439.757 699.244C432.988 707.726 426.517 716.815 419.941 725.695C428.733 720.893 437.435 715.976 446.286 711.252C453.198 703.519 460.039 695.628 467.132 688.237ZM495.752 677.47C486.999 680.748 478.187 683.966 469.517 687.331C462.507 694.6 455.714 702.294 448.877 709.897C457.129 705.544 465.563 701.439 473.929 697.235C481.168 690.581 488.355 683.829 495.752 677.47ZM524.656 666.608C515.994 669.819 507.383 673.089 498.757 676.343C491.506 682.544 484.417 689.049 477.316 695.529C485.832 691.211 494.337 686.878 502.889 682.607C510.108 677.202 517.307 671.769 524.656 666.608ZM552.208 656.629C544.406 659.399 536.619 662.184 528.879 665.017C521.948 669.855 515.103 674.838 508.286 679.873C515.836 676.166 523.501 672.616 531.162 669.063C538.145 664.871 545.115 660.648 552.208 656.629ZM575.222 648.549C569.616 650.515 563.993 652.469 558.402 654.454C552.398 657.827 546.42 661.242 540.483 664.721C552.047 659.312 563.536 653.793 575.222 648.549ZM1908.37 386.55C1902.93 387.019 1897.5 387.495 1892.06 387.98C1897.5 389.729 1902.93 391.561 1908.37 393.342V394.441C1902.05 392.369 1895.73 390.249 1889.4 388.224C1867.73 390.159 1846.03 392.136 1824.3 394.252C1852.34 404.779 1880.37 415.829 1908.37 427.278V428.432C1879.58 416.653 1850.76 405.291 1821.93 394.492C1800.25 396.612 1778.53 398.826 1756.8 401.134C1807.33 422.877 1857.91 446.37 1908.37 471.264V472.438C1857.18 447.177 1805.86 423.37 1754.61 401.355C1732.91 403.664 1711.19 406.118 1689.47 408.624C1762.38 444.061 1835.54 483.438 1908.37 525.679V526.92C1834.86 484.277 1761.01 444.557 1687.45 408.856C1665.71 411.37 1643.97 414.013 1622.23 416.724C1717.39 468.333 1813.24 527.144 1908.37 590.687V591.995C1812.61 528.019 1716.12 468.834 1620.33 416.956C1598.56 419.674 1576.8 422.507 1555.05 425.434C1672.35 495.741 1791.06 577.694 1908.37 666.455V667.83C1790.46 578.604 1671.15 496.242 1553.26 425.675C1531.48 428.61 1509.72 431.639 1487.96 434.787C1627.26 526.305 1769.03 635.28 1908.37 753.056V754.49C1768.47 636.214 1626.11 526.806 1486.26 435.031C1464.47 438.191 1442.71 441.421 1420.96 444.798C1582.09 560.056 1747.18 700.123 1908.32 850.531H1906.7C1745.54 700.17 1580.44 560.182 1419.33 445.062C1397.51 448.458 1375.69 451.905 1353.92 455.525C1500.88 569.314 1651.67 704.918 1800.06 850.531H1798.58C1650.16 704.953 1499.36 569.433 1352.43 455.781C1330.57 459.422 1308.74 463.18 1286.96 467.057C1421.14 578.935 1558.99 709.96 1695.53 850.531H1694.07C1557.5 710 1419.65 579.053 1285.48 467.309C1263.65 471.197 1241.89 475.263 1220.16 479.392C1342.74 588.946 1468.75 715.251 1594.26 850.531H1592.81C1467.3 715.299 1341.29 589.08 1218.74 479.66C1196.93 483.808 1175.19 488.122 1153.49 492.519C1265.44 599.35 1380.56 720.763 1495.75 850.531H1494.32C1379.13 720.818 1264.02 599.496 1152.1 492.795C1130.31 497.219 1108.6 501.785 1086.95 506.461C1189.07 610.149 1294.09 726.538 1399.56 850.531H1398.14C1292.68 726.605 1187.68 610.315 1085.59 506.757C1063.83 511.465 1042.15 516.299 1020.54 521.27C1113.55 621.416 1209.16 732.546 1305.47 850.531H1304.06C1207.76 732.625 1112.18 621.598 1019.21 521.578C997.49 526.581 975.841 531.699 954.286 536.978C1038.79 633.2 1125.6 738.779 1213.26 850.531H1211.85C1124.22 738.866 1037.43 633.393 952.981 537.305C827.889 567.975 705.774 603.337 588.241 643.979C569.17 652.406 550.32 661.14 531.58 670.024C512.943 680.941 494.443 692.074 476.243 703.684C459.021 716.953 442.036 730.632 425.299 744.736C409.024 761.073 392.961 777.805 377.308 795.274C363.761 813.12 350.517 831.538 337.577 850.531H336.173C340.578 842.802 344.851 834.808 349.378 827.307C343.566 834.126 337.806 841.029 332.116 848.069C331.718 848.888 331.316 849.708 330.918 850.531H328.883C329.676 849.523 330.472 848.522 331.269 847.521C337.187 835.505 343.523 824.36 349.658 812.797C342.261 820.078 335.026 827.618 327.712 835.04C325.465 840.257 323.178 845.386 320.895 850.535H319.835C321.818 846.052 323.805 841.568 325.761 837.018C321.27 841.541 316.744 845.997 312.265 850.535H310.849C316.148 845.11 321.53 839.815 326.869 834.45C332.037 822.461 337.037 810.114 342.367 798.473C334.592 804.54 326.758 810.524 319.105 816.768C315.04 827.705 311.232 839.193 307.352 850.535H306.268C310.005 839.555 313.712 828.508 317.631 817.927C309.729 824.407 301.99 831.117 294.191 837.743C292.945 841.955 291.723 846.229 290.52 850.535H289.472C290.568 846.635 291.676 842.762 292.807 838.937C288.277 842.79 283.755 846.647 279.252 850.535H277.691C282.868 846.04 288.08 841.596 293.296 837.16C297.893 821.673 302.987 807.309 307.924 792.583C299.431 797.956 291.009 803.425 282.615 808.913C278.933 822.709 275.144 836.27 271.666 850.535H270.653C274.052 836.597 277.718 823.265 281.31 809.756C272.936 815.224 264.522 820.645 256.258 826.251C254.59 834.343 252.903 842.4 251.255 850.539H250.226C251.799 842.695 253.407 834.926 255.008 827.134C246.61 832.862 238.362 838.771 230.058 844.614L229.156 850.531H228.091L228.86 845.441C226.423 847.147 223.975 848.841 221.53 850.531H219.697C222.831 848.364 225.97 846.198 229.093 844.015C231.935 825.274 234.813 806.604 238.054 788.793C229.12 793.182 220.135 797.527 211.299 802.01C209.19 817.73 207.332 834.04 205.554 850.531H204.486C206.248 834.229 208.094 818.128 210.167 802.566C207.991 803.645 205.779 804.697 203.626 805.796C197.002 809.184 190.304 812.703 183.534 816.339C182.529 827.504 181.638 838.949 180.806 850.531H179.745C180.565 839.157 181.448 827.918 182.43 816.934C173.713 821.63 164.881 826.523 155.951 831.577C155.631 837.822 155.351 844.149 155.091 850.531H154.038C154.291 844.362 154.567 838.239 154.87 832.192C146.204 837.113 137.447 842.183 128.608 847.391L128.564 850.535H127.512L127.547 848.018C126.132 848.853 124.712 849.692 123.293 850.535H121.246C123.352 849.286 125.453 848.041 127.551 846.804C135.141 331.749 264.467 110.541 464.47 83.5784C452.993 76.4319 441.839 70.223 430.638 63.892C223.257 71.6728 93.5724 294.031 101.324 850.535H100.263C92.3541 294.902 221.089 71.5191 427.294 61.9457C415.277 55.2325 403.476 49.1655 391.841 43.5593C178.247 31.2794 49.6621 254.603 73.3699 850.531H72.3014C48.5227 257.562 175.037 32.2841 386.045 40.8607C376.973 36.4365 367.842 31.8389 359.093 28.3247C134.825 -11.9583 3.83948 207.583 44.8756 850.531H43.7952C3.12573 216.349 129.388 -6.89581 347.32 24.3141C98.0631 -67.6887 -45.7406 137.335 15.8175 850.531H14.7294C-48.2639 123.389 101.367 -77.6481 358.714 25.9728C381.795 30.1488 405.755 36.7753 430.72 46.2659C454.326 50.5089 478.909 57.4861 504.272 66.7324C529.908 71.3024 556.699 79.1463 584.141 88.9127C610.297 93.8058 637.301 101.133 664.987 110.494C691.671 115.616 718.884 122.262 746.944 131.473C772.726 136.464 799.103 143.248 826.028 151.711C854.108 156.951 882.926 164.456 912.173 173.332C940.916 178.67 970.179 185.639 999.895 194.106C1028.88 199.389 1058.23 205.846 1088.07 213.985C1118.48 219.307 1149.42 226.399 1180.65 234.554C1211.96 239.805 1243.62 246.27 1275.58 253.945C1307.95 259.063 1340.62 265.366 1373.57 272.828C1406.96 277.725 1440.65 283.796 1474.5 290.793C1509.42 295.426 1544.53 300.945 1579.81 307.544C1615.63 311.732 1651.61 316.92 1687.66 322.85C1725.29 326.537 1763.01 331.02 1800.75 336.319C1836.62 339.069 1872.51 342.426 1908.36 346.365V347.922C1894.07 347.216 1879.76 346.602 1865.45 346.062C1879.76 348.386 1894.07 350.884 1908.36 353.445V355.218C1890.39 355.285 1872.41 355.446 1854.41 355.734C1870.7 359.492 1886.98 363.519 1903.25 367.604L1908.37 367.348V368.388L1906.77 368.467L1908.37 368.869V369.956L1903.19 368.66C1882.54 369.692 1861.87 370.795 1841.18 372.064C1857.29 376.973 1873.39 381.984 1889.5 387.149C1895.79 386.589 1902.08 386.034 1908.37 385.494V386.55H1908.37Z" fill="white"/>
</svg>
